<svg width="56" height="99" viewBox="0 0 56 99" fill="none" xmlns="http://www.w3.org/2000/svg">
<g id="Group 1">
<g id="Clip path group">
<mask id="mask0_16_174" style="mask-type:luminance" maskUnits="userSpaceOnUse" x="0" y="0" width="56" height="99">
<g id="8d3ab031d5">
<path id="Vector" d="M0 0H56V99H0V0Z" fill="white"/>
</g>
</mask>
<g mask="url(#mask0_16_174)">
<g id="Group">
<path id="Vector_2" d="M27.9932 98.9072C20.5693 98.9072 13.4472 97.1154 8.19721 93.9211C2.94721 90.7294 -0.00337219 86.4007 -0.00337219 81.8838V17.1162C-0.00337219 12.5993 2.94721 8.27062 8.19721 5.0789C13.4472 1.8846 20.5693 0.092804 27.9932 0.092804C35.4206 0.092804 42.5393 1.8846 47.7893 5.0789C53.0427 8.27062 55.9898 12.5993 55.9898 17.1162V81.8838C55.9898 86.4007 53.0427 90.7294 47.7893 93.9211C42.5393 97.1154 35.4206 98.9072 27.9932 98.9072Z" fill="#D9D9D9"/>
</g>
</g>
</g>
<path id="Vector_3" d="M31.2117 86.491V16.861C31.2117 15.5487 29.8009 14.4814 28.0644 14.4814C26.328 14.4814 24.9137 15.5487 24.9137 16.861V86.4162C23.5199 87.1535 22.6042 88.3756 22.6042 89.7549C22.6042 92.003 25.0223 93.8283 27.9932 93.8283C30.9641 93.8283 33.3823 92.003 33.3823 89.7549C33.3823 88.422 32.531 87.236 31.2117 86.491Z" fill="black"/>
<path id="Vector_4" d="M29.8077 87.071C29.811 87.0504 29.8144 87.0272 29.8144 87.0066V45.4266C29.8144 44.697 29.031 44.104 28.0644 44.104C27.0979 44.104 26.3144 44.697 26.3144 45.4266V87.0066C26.3144 87.0117 26.3144 87.0143 26.3144 87.022C24.9511 87.499 24.0048 88.5431 24.0048 89.7548C24.0048 91.4203 25.7888 92.7713 27.9932 92.7713C30.1977 92.7713 31.985 91.4203 31.985 89.7548C31.985 88.5844 31.0998 87.5712 29.8077 87.071Z" fill="#31C1D5"/>
<path id="Vector_5" d="M13.7864 20.79C13.5931 20.79 13.4371 20.674 13.4337 20.5296C13.4303 20.3852 13.5863 20.2641 13.7796 20.2615L22.5296 20.1403C22.7229 20.1377 22.8823 20.2563 22.8857 20.4007C22.8857 20.5477 22.7331 20.6688 22.5398 20.6688L13.7898 20.79H13.7864Z" fill="black"/>
<path id="Vector_6" d="M13.7864 27.8206C13.5931 27.8206 13.4371 27.7046 13.4337 27.5602C13.4303 27.4132 13.5863 27.2946 13.7796 27.2921L22.5296 27.1709C22.7229 27.1683 22.8823 27.2843 22.8857 27.4313C22.8857 27.5782 22.7331 27.6968 22.5398 27.6994L13.7898 27.8206H13.7864Z" fill="black"/>
<path id="Vector_7" d="M13.7864 35.0625C13.5931 35.0625 13.4371 34.9465 13.4337 34.8021C13.4303 34.6578 13.5863 34.5366 13.7796 34.534L22.5296 34.4128C22.7229 34.4103 22.8823 34.5263 22.8857 34.6732C22.8857 34.8202 22.7331 34.9388 22.5398 34.9414L13.7898 35.0625H13.7864Z" fill="black"/>
<path id="Vector_8" d="M13.7864 42.3045C13.5931 42.3045 13.4371 42.1885 13.4337 42.0441C13.4303 41.8971 13.5863 41.7785 13.7796 41.776L22.5296 41.6548C22.7229 41.6522 22.8823 41.7682 22.8857 41.9152C22.8857 42.0621 22.7331 42.1807 22.5398 42.1833L13.7898 42.3045H13.7864Z" fill="black"/>
<path id="Vector_9" d="M13.7864 49.7398C13.5931 49.7398 13.4371 49.6238 13.4337 49.4768C13.4303 49.3325 13.5863 49.2113 13.7796 49.2087L22.5296 49.0901C22.7229 49.0875 22.8823 49.2036 22.8857 49.3479C22.8857 49.4949 22.7331 49.6161 22.5398 49.6186L13.7898 49.7398H13.7864Z" fill="black"/>
<path id="Vector_10" d="M10.4254 57.0127C10.2355 57.0127 10.0761 56.8967 10.0761 56.7497C10.0727 56.6053 10.2253 56.4842 10.4186 56.4816L22.5296 56.3295C22.7161 56.3295 22.8823 56.4455 22.8857 56.5899C22.8857 56.7368 22.7331 56.858 22.5398 56.8606L10.4288 57.0127H10.4254Z" fill="black"/>
<path id="Vector_11" d="M13.7864 64.2211C13.5931 64.2211 13.4371 64.1051 13.4337 63.9607C13.4303 63.8164 13.5863 63.6952 13.7796 63.6926L22.5296 63.5714H22.533C22.7263 63.5714 22.8823 63.6875 22.8857 63.8318C22.8857 63.9788 22.7331 64.1 22.5398 64.1025L13.7898 64.2211H13.7864Z" fill="black"/>
<path id="Vector_12" d="M13.7864 71.4631C13.5931 71.4631 13.4371 71.3471 13.4337 71.2027C13.4303 71.0583 13.5863 70.9371 13.7796 70.9346L22.5296 70.8134C22.7229 70.8134 22.8823 70.9294 22.8857 71.0738C22.8857 71.2207 22.7331 71.3419 22.5398 71.3419L13.7898 71.4631H13.7864Z" fill="black"/>
<path id="Vector_13" d="M13.7864 78.705C13.5931 78.705 13.4371 78.589 13.4337 78.4446C13.4303 78.3003 13.5863 78.1791 13.7796 78.1765L22.5296 78.0553H22.533C22.7263 78.0553 22.8823 78.1714 22.8857 78.3157C22.8857 78.4627 22.7331 78.5813 22.5398 78.5839L13.7898 78.705H13.7864Z" fill="black"/>
<path id="Vector_14" d="M20.0131 53.2563C19.8232 53.2563 19.6672 53.1403 19.6638 52.996C19.6604 52.849 19.813 52.7278 20.0063 52.7253L22.5262 52.6711C22.5296 52.6711 22.533 52.6711 22.533 52.6711C22.7229 52.6711 22.8789 52.7871 22.8857 52.9315C22.8891 53.0759 22.7331 53.197 22.5398 53.1996L20.0199 53.2563C20.0199 53.2563 20.0165 53.2563 20.0131 53.2563Z" fill="black"/>
<path id="Vector_15" d="M20.0131 60.4751C19.8232 60.4751 19.6672 60.3617 19.6638 60.2173C19.6604 60.0703 19.813 59.9492 20.0063 59.9466L22.5262 59.8924C22.5296 59.8924 22.533 59.8924 22.533 59.8924C22.7229 59.8924 22.8789 60.0059 22.8857 60.1503C22.8891 60.2972 22.7331 60.4184 22.5398 60.421L20.0199 60.4751C20.0199 60.4751 20.0165 60.4751 20.0131 60.4751Z" fill="black"/>
<path id="Vector_16" d="M20.0131 68.2249C19.8232 68.2249 19.6672 68.1115 19.6638 67.9671C19.6604 67.8202 19.813 67.699 20.0063 67.6964L22.5262 67.6423C22.5296 67.6423 22.533 67.6423 22.533 67.6423C22.7229 67.6423 22.8789 67.7557 22.8857 67.9001C22.8891 68.0471 22.7331 68.1682 22.5398 68.1708L20.0199 68.2249C20.0199 68.2249 20.0165 68.2249 20.0131 68.2249Z" fill="black"/>
<path id="Vector_17" d="M20.0131 75.2349C19.8232 75.2349 19.6672 75.1188 19.6638 74.977C19.6604 74.8301 19.813 74.7089 20.0063 74.7063L22.5262 74.6496C22.5296 74.6496 22.533 74.6496 22.533 74.6496C22.7229 74.6496 22.8789 74.7656 22.8857 74.91C22.8891 75.057 22.7331 75.1781 22.5398 75.1807L20.0199 75.2349C20.0199 75.2349 20.0165 75.2349 20.0131 75.2349Z" fill="black"/>
<path id="Vector_18" d="M20.0131 46.1407C19.8232 46.1407 19.6672 46.0247 19.6638 45.8803C19.6604 45.7334 19.813 45.6148 20.0063 45.6122L22.5262 45.5555C22.5296 45.5555 22.533 45.5555 22.533 45.5555C22.7229 45.5555 22.8789 45.6715 22.8857 45.8159C22.8891 45.9628 22.7331 46.0814 22.5398 46.084L20.0199 46.1407C20.0199 46.1407 20.0165 46.1407 20.0131 46.1407Z" fill="black"/>
<path id="Vector_19" d="M20.0131 38.8214C19.8232 38.8214 19.6672 38.7054 19.6638 38.561C19.6604 38.4141 19.813 38.2955 20.0063 38.2929L22.5262 38.2362C22.5296 38.2362 22.533 38.2362 22.533 38.2362C22.7229 38.2362 22.8789 38.3522 22.8857 38.4966C22.8891 38.6435 22.7331 38.7621 22.5398 38.7647L20.0199 38.8214C20.0199 38.8214 20.0165 38.8214 20.0131 38.8214Z" fill="black"/>
<path id="Vector_20" d="M20.0131 31.6491C19.8232 31.6491 19.6672 31.5331 19.6638 31.3887C19.6604 31.2443 19.813 31.1231 20.0063 31.1206L22.5262 31.0638C22.5296 31.0638 22.533 31.0638 22.533 31.0638C22.7229 31.0638 22.8789 31.1799 22.8857 31.3242C22.8891 31.4712 22.7331 31.5924 22.5398 31.5924L20.0199 31.6491C20.0199 31.6491 20.0165 31.6491 20.0131 31.6491Z" fill="black"/>
<path id="Vector_21" d="M20.0131 24.4277C19.8232 24.4277 19.6672 24.3117 19.6638 24.1699C19.6604 24.023 19.813 23.9018 20.0063 23.8992L22.5262 23.8451C22.5296 23.8451 22.533 23.8451 22.533 23.8451C22.7229 23.8451 22.8789 23.9585 22.8857 24.1029C22.8891 24.2498 22.7331 24.371 22.5398 24.3736L20.0199 24.4277C20.0199 24.4277 20.0165 24.4277 20.0131 24.4277Z" fill="black"/>
<path id="Vector_22" d="M42.2035 25.0233C42.3934 25.0233 42.5494 24.9073 42.5528 24.7629C42.5562 24.6159 42.4002 24.4948 42.2069 24.4948L33.4569 24.3736C33.2636 24.3684 33.1076 24.487 33.1042 24.634C33.1008 24.7784 33.2534 24.8995 33.4467 24.9021L42.1967 25.0233C42.2001 25.0233 42.2001 25.0233 42.2035 25.0233Z" fill="black"/>
<path id="Vector_23" d="M42.2035 32.0538C42.3934 32.0538 42.5494 31.9378 42.5528 31.7934C42.5562 31.6465 42.4002 31.5253 42.2069 31.5253L33.4569 31.4041C33.2636 31.399 33.1076 31.5176 33.1042 31.6645C33.1008 31.8089 33.2534 31.9301 33.4467 31.9327L42.1967 32.0538C42.2001 32.0538 42.2001 32.0538 42.2035 32.0538Z" fill="black"/>
<path id="Vector_24" d="M42.2035 39.2958C42.3934 39.2958 42.5494 39.1798 42.5528 39.0354C42.5562 38.8884 42.4002 38.7673 42.2069 38.7647L33.4569 38.6461C33.2636 38.6409 33.1076 38.7595 33.1042 38.9039C33.1008 39.0509 33.2534 39.172 33.4467 39.1746L42.1967 39.2958C42.2001 39.2958 42.2001 39.2958 42.2035 39.2958Z" fill="black"/>
<path id="Vector_25" d="M42.2035 46.5352C42.3934 46.5352 42.5494 46.4217 42.5528 46.2774C42.5562 46.1304 42.4002 46.0092 42.2069 46.0067L33.4569 45.8855C33.2636 45.8829 33.1076 46.0015 33.1042 46.1484C33.1008 46.2928 33.2534 46.414 33.4467 46.4166L42.1967 46.5352C42.2001 46.5352 42.2001 46.5352 42.2035 46.5352Z" fill="black"/>
<path id="Vector_26" d="M42.2035 53.9705C42.3934 53.9705 42.5494 53.8545 42.5528 53.7101C42.5562 53.5631 42.4002 53.4445 42.2069 53.442L33.4569 53.3208C33.2636 53.3182 33.1076 53.4342 33.1042 53.5812C33.1008 53.7281 33.2534 53.8467 33.4467 53.8493L42.1967 53.9705C42.2001 53.9705 42.2001 53.9705 42.2035 53.9705Z" fill="black"/>
<path id="Vector_27" d="M42.5664 61.2717C42.7123 61.2717 42.831 61.1531 42.831 61.0036C42.8343 60.8541 42.7156 60.7303 42.5698 60.7278L33.3721 60.5705C33.2297 60.5679 33.1042 60.6891 33.1042 60.8386C33.1008 60.9881 33.2195 61.1119 33.3654 61.1145L42.563 61.2717H42.5664Z" fill="black"/>
<path id="Vector_28" d="M42.2035 68.4544C42.3934 68.4544 42.5494 68.3384 42.5528 68.194C42.5562 68.0471 42.4002 67.9259 42.2069 67.9259L33.4569 67.8047H33.4535C33.2636 67.8047 33.1076 67.9207 33.1042 68.0651C33.1008 68.2121 33.2534 68.3307 33.4467 68.3332L42.1967 68.4544C42.2001 68.4544 42.2001 68.4544 42.2035 68.4544Z" fill="black"/>
<path id="Vector_29" d="M42.2035 75.6964C42.3934 75.6964 42.5494 75.5803 42.5528 75.436C42.5562 75.289 42.4002 75.1704 42.2069 75.1678L33.4569 75.0467C33.2636 75.0467 33.1076 75.1601 33.1042 75.3071C33.1008 75.4514 33.2534 75.5726 33.4467 75.5752L42.1967 75.6964C42.2001 75.6964 42.2001 75.6964 42.2035 75.6964Z" fill="black"/>
<path id="Vector_30" d="M35.9734 57.4871C36.1633 57.4871 36.3193 57.371 36.3227 57.2267C36.3261 57.0823 36.1735 56.9611 35.9802 56.9585L33.4603 56.9018C33.4569 56.9018 33.4535 56.9018 33.4535 56.9018C33.2636 56.9018 33.1076 57.0178 33.1042 57.1622C33.1008 57.3092 33.2534 57.4278 33.4467 57.4329L35.9666 57.4871C35.97 57.4871 35.97 57.4871 35.9734 57.4871Z" fill="black"/>
<path id="Vector_31" d="M35.9734 64.7084C36.1633 64.7084 36.3193 64.5924 36.3227 64.448C36.3261 64.301 36.1735 64.1824 35.9802 64.1799L33.4603 64.1231C33.4569 64.1231 33.4535 64.1231 33.4535 64.1231C33.2636 64.1231 33.1076 64.2392 33.1042 64.3835C33.1008 64.5279 33.2534 64.6491 33.4467 64.6517L35.9666 64.7084C35.97 64.7084 35.97 64.7084 35.9734 64.7084Z" fill="black"/>
<path id="Vector_32" d="M35.9734 72.4582C36.1633 72.4582 36.3193 72.3422 36.3227 72.1978C36.3261 72.0535 36.1735 71.9323 35.9802 71.9297L33.4603 71.873C33.4569 71.873 33.4535 71.873 33.4535 71.873C33.2636 71.873 33.1076 71.989 33.1042 72.1334C33.1008 72.2803 33.2534 72.3989 33.4467 72.4015L35.9666 72.4582C35.97 72.4582 35.97 72.4582 35.9734 72.4582Z" fill="black"/>
<path id="Vector_33" d="M35.9734 79.4681C36.1633 79.4681 36.3193 79.3521 36.3227 79.2077C36.3261 79.0608 36.1735 78.9396 35.9802 78.937L33.4603 78.8829C33.4569 78.8829 33.4535 78.8829 33.4535 78.8829C33.2636 78.8829 33.1076 78.9989 33.1042 79.1433C33.1008 79.2877 33.2534 79.4088 33.4467 79.4114L35.9666 79.4681C35.97 79.4681 35.97 79.4681 35.9734 79.4681Z" fill="black"/>
<path id="Vector_34" d="M35.9734 50.3714C36.1633 50.3714 36.3193 50.258 36.3227 50.1136C36.3261 49.9667 36.1735 49.8455 35.9802 49.8429L33.4603 49.7888C33.4569 49.7888 33.4535 49.7888 33.4535 49.7888C33.2636 49.7888 33.1076 49.9022 33.1042 50.0466C33.1008 50.1935 33.2534 50.3147 33.4467 50.3173L35.9666 50.3714C35.97 50.3714 35.97 50.3714 35.9734 50.3714Z" fill="black"/>
<path id="Vector_35" d="M35.9734 43.0521C36.1633 43.0521 36.3193 42.9387 36.3227 42.7943C36.3261 42.6474 36.1735 42.5262 35.9802 42.5236L33.4603 42.4695C33.4569 42.4695 33.4535 42.4695 33.4535 42.4695C33.2636 42.4695 33.1076 42.5829 33.1042 42.7273C33.1008 42.8742 33.2534 42.9954 33.4467 42.998L35.9666 43.0521C35.97 43.0521 35.97 43.0521 35.9734 43.0521Z" fill="black"/>
<path id="Vector_36" d="M35.9734 35.8823C36.1633 35.8823 36.3193 35.7663 36.3227 35.6219C36.3261 35.475 36.1735 35.3564 35.9802 35.3512L33.4603 35.2971C33.4569 35.2971 33.4535 35.2971 33.4535 35.2971C33.2636 35.2971 33.1076 35.4131 33.1042 35.5575C33.1008 35.7019 33.2534 35.823 33.4467 35.8256L35.9666 35.8823C35.97 35.8823 35.97 35.8823 35.9734 35.8823Z" fill="black"/>
<path id="Vector_37" d="M35.9734 28.661C36.1633 28.661 36.3193 28.545 36.3227 28.4006C36.3261 28.2537 36.1735 28.1351 35.9802 28.1325L33.4603 28.0758C33.4569 28.0758 33.4535 28.0758 33.4535 28.0758C33.2636 28.0758 33.1076 28.1918 33.1042 28.3362C33.1008 28.4806 33.2534 28.6017 33.4467 28.6043L35.9666 28.661C35.97 28.661 35.97 28.661 35.9734 28.661Z" fill="black"/>
<path id="Vector_38" d="M23.9947 13.2206C23.9947 13.3624 23.9472 13.5171 23.8556 13.6821C23.7641 13.8471 23.6182 14.0095 23.4181 14.1694C23.218 14.3292 22.9637 14.4581 22.6551 14.5587C22.3464 14.6592 21.9869 14.7082 21.5766 14.7082C21.2645 14.7082 20.9797 14.685 20.7253 14.6412C20.4676 14.5973 20.2369 14.5251 20.0301 14.4323C19.8198 14.3369 19.6299 14.2132 19.4535 14.0585C19.2975 13.9193 19.1652 13.762 19.0567 13.5867C18.9448 13.414 18.8634 13.2284 18.8057 13.0324C18.7515 12.8339 18.7243 12.6251 18.7243 12.4034C18.7243 12.045 18.7922 11.7227 18.9312 11.4366C19.0703 11.153 19.267 10.9106 19.5281 10.7069C19.7859 10.5059 20.0877 10.3512 20.4336 10.2455C20.7796 10.1398 21.1492 10.0882 21.5426 10.0882C22.0208 10.0882 22.4482 10.1604 22.8212 10.3048C23.1943 10.4491 23.4826 10.627 23.6793 10.8384C23.8794 11.0498 23.9777 11.2509 23.9777 11.4417C23.9777 11.5448 23.9302 11.6351 23.8353 11.715C23.7369 11.7949 23.6216 11.8336 23.4826 11.8336C23.33 11.8336 23.2146 11.8052 23.1366 11.7511C23.062 11.6969 22.9772 11.6016 22.8823 11.4675C22.7263 11.2458 22.5431 11.0808 22.3329 10.9725C22.1192 10.8616 21.8614 10.8075 21.5494 10.8075C21.0577 10.8075 20.6676 10.9467 20.376 11.2303C20.0843 11.5113 19.9385 11.9135 19.9385 12.4343C19.9385 12.7823 20.0029 13.0711 20.1318 13.3005C20.2607 13.5326 20.4438 13.7053 20.6812 13.8187C20.9152 13.9322 21.1933 13.9889 21.5121 13.9889C21.8547 13.9889 22.1463 13.9244 22.3837 13.7955C22.6211 13.6666 22.8009 13.4759 22.923 13.2258C22.9739 13.1098 23.0383 13.0118 23.1129 12.9396C23.1875 12.8648 23.3096 12.8262 23.4758 12.8262C23.6182 12.8262 23.7403 12.8648 23.8421 12.9396C23.9438 13.0144 23.9947 13.1098 23.9947 13.2206Z" fill="black"/>
<path id="Vector_39" d="M18.5785 10.083C18.5785 9.94382 18.5378 9.83554 18.4598 9.7582C18.3852 9.68086 18.28 9.64476 18.1512 9.64476C18.0664 9.64476 17.9918 9.66023 17.9273 9.69375C17.8663 9.72984 17.8154 9.7814 17.7815 9.84843C17.7476 9.91289 17.7306 9.99281 17.7306 10.083C17.7306 10.1707 17.7476 10.248 17.7815 10.3151C17.8154 10.3795 17.8629 10.4311 17.9273 10.4672C17.9918 10.5033 18.063 10.5187 18.1512 10.5187C18.28 10.5187 18.3852 10.4801 18.4598 10.4027C18.5378 10.3254 18.5785 10.2197 18.5785 10.083ZM19.0058 10.083C19.0058 10.1836 18.9889 10.2764 18.9482 10.3615C18.9075 10.4466 18.8498 10.5213 18.7752 10.5806C18.7006 10.6425 18.609 10.6889 18.5039 10.7224C18.3987 10.7559 18.2834 10.7714 18.1512 10.7714C18.0223 10.7714 17.9036 10.7559 17.7985 10.7224C17.6967 10.6889 17.6051 10.6425 17.5305 10.5806C17.4559 10.5187 17.3983 10.444 17.3576 10.3615C17.3169 10.2764 17.2999 10.1836 17.2999 10.083C17.2999 9.97992 17.3169 9.88453 17.3576 9.79945C17.3983 9.71437 17.4559 9.64218 17.5305 9.58031C17.6051 9.52101 17.6933 9.4746 17.7985 9.44109C17.907 9.40757 18.0223 9.39211 18.1512 9.39211C18.28 9.39211 18.3987 9.40757 18.5039 9.44109C18.609 9.4746 18.7006 9.52359 18.7752 9.58289C18.8532 9.64476 18.9109 9.71695 18.9482 9.80203C18.9889 9.88711 19.0058 9.97992 19.0058 10.083Z" fill="black"/>
<path id="Vector_40" d="M32.5751 10.083C32.5751 9.94382 32.5378 9.83554 32.4598 9.7582C32.3818 9.68086 32.28 9.64476 32.1478 9.64476C32.0664 9.64476 31.9917 9.66023 31.9273 9.69375C31.8629 9.72984 31.8154 9.7814 31.7815 9.84843C31.7442 9.91289 31.7272 9.99281 31.7272 10.083C31.7272 10.1707 31.7442 10.248 31.7781 10.3151C31.812 10.3795 31.8629 10.4311 31.9239 10.4672C31.9884 10.5033 32.063 10.5187 32.1478 10.5187C32.28 10.5187 32.3818 10.4801 32.4598 10.4027C32.5378 10.3254 32.5751 10.2197 32.5751 10.083ZM33.0058 10.083C33.0058 10.1836 32.9854 10.2764 32.9481 10.3615C32.9074 10.4466 32.8498 10.5213 32.7752 10.5806C32.6972 10.6425 32.609 10.6889 32.5039 10.7224C32.3987 10.7559 32.28 10.7714 32.1478 10.7714C32.0189 10.7714 31.9036 10.7559 31.7984 10.7224C31.6967 10.6889 31.6051 10.6425 31.5305 10.5806C31.4525 10.5187 31.3948 10.444 31.3575 10.3615C31.3168 10.2764 31.2965 10.1836 31.2965 10.083C31.2965 9.97992 31.3168 9.88453 31.3575 9.79945C31.3948 9.71437 31.4559 9.64218 31.5271 9.58031C31.6017 9.52101 31.6933 9.4746 31.7984 9.44109C31.9036 9.40757 32.0223 9.39211 32.1478 9.39211C32.28 9.39211 32.3987 9.40757 32.5039 9.44109C32.609 9.4746 32.7006 9.52359 32.7752 9.58289C32.8498 9.64476 32.9074 9.71695 32.9481 9.80203C32.9854 9.88711 33.0058 9.97992 33.0058 10.083Z" fill="black"/>
<path id="Vector_41" d="M36.9298 10.8075H34.5693V11.9496H36.5398C36.7229 11.9496 36.8619 11.9806 36.9501 12.0424C37.0417 12.1043 37.0858 12.1868 37.0858 12.2925C37.0858 12.3957 37.0383 12.4782 36.9467 12.5374C36.8585 12.5993 36.7195 12.6303 36.5398 12.6303H34.5693V14.1024C34.5693 14.288 34.5117 14.4272 34.4031 14.5174C34.2912 14.6077 34.1454 14.6541 33.9724 14.6541C33.7961 14.6541 33.6502 14.6077 33.5383 14.5174C33.4264 14.4246 33.3721 14.288 33.3721 14.1024V10.6632C33.3721 10.5342 33.3959 10.4285 33.4467 10.346C33.4976 10.2635 33.579 10.2042 33.6875 10.1656C33.7961 10.1295 33.9351 10.1089 34.1047 10.1089H36.9298C37.1197 10.1089 37.2621 10.1424 37.3537 10.2068C37.4453 10.2687 37.4928 10.3538 37.4928 10.4569C37.4928 10.5626 37.4453 10.6477 37.3537 10.7121C37.2621 10.7766 37.1197 10.8075 36.9298 10.8075Z" fill="black"/>
<path id="Vector_42" d="M7.98016 17.0827H6.48791L6.30816 17.8509C6.60661 17.7323 6.88132 17.6705 7.13229 17.6705C7.33239 17.6705 7.52231 17.6988 7.69867 17.7556C7.87163 17.8148 8.02764 17.8922 8.15652 17.9927C8.28878 18.0933 8.39392 18.2119 8.46853 18.3511C8.54654 18.4877 8.58384 18.6373 8.58384 18.7945C8.58384 19.024 8.51601 19.2328 8.37696 19.4236C8.2413 19.6118 8.0446 19.7613 7.79024 19.8722C7.53249 19.9831 7.23404 20.0372 6.90167 20.0372C6.52522 20.0372 6.21999 19.9856 5.98597 19.8825C5.75196 19.7768 5.58917 19.6556 5.49082 19.5216C5.39247 19.3849 5.34499 19.2663 5.34499 19.1658C5.34499 19.1039 5.3789 19.0446 5.44673 18.9905C5.51456 18.9338 5.59935 18.908 5.70109 18.908C5.87745 18.908 6.00971 18.9827 6.0945 19.1374C6.17929 19.2792 6.29121 19.3875 6.43365 19.4674C6.57609 19.5448 6.73549 19.5834 6.91185 19.5834C7.07464 19.5834 7.21708 19.5525 7.33917 19.4881C7.45787 19.4262 7.55283 19.3385 7.62066 19.2277C7.6851 19.1168 7.71902 18.9905 7.71902 18.8487C7.71902 18.6991 7.68171 18.5677 7.61049 18.4594C7.53927 18.3537 7.44431 18.2712 7.32561 18.2196C7.2069 18.1655 7.07125 18.1397 6.92541 18.1397C6.74566 18.1397 6.61679 18.1552 6.53878 18.1887C6.46078 18.2222 6.34886 18.2815 6.20303 18.364C6.0572 18.4465 5.93849 18.4877 5.84353 18.4877C5.74179 18.4877 5.65022 18.4594 5.56882 18.4052C5.49082 18.3485 5.45012 18.2841 5.45012 18.2119C5.45012 18.2041 5.46369 18.1526 5.48404 18.052L5.74857 16.9125C5.77909 16.7759 5.83336 16.6779 5.91475 16.616C5.99276 16.5541 6.12163 16.5232 6.30138 16.5232H7.9632C8.28878 16.5232 8.45497 16.6186 8.45497 16.8068C8.45497 16.8893 8.41427 16.9563 8.33287 17.0053C8.25487 17.0569 8.13617 17.0827 7.98016 17.0827Z" fill="black"/>
<path id="Vector_43" d="M11.4869 18.2222C11.4869 17.9335 11.4666 17.6963 11.4191 17.5107C11.3716 17.3276 11.2936 17.1858 11.1851 17.093C11.0766 16.9976 10.9273 16.9512 10.734 16.9512C10.4559 16.9512 10.2626 17.0569 10.1575 17.2683C10.049 17.4771 9.99469 17.802 9.99469 18.2429C9.99469 18.5393 10.0184 18.7843 10.0625 18.9725C10.11 19.1632 10.188 19.3076 10.2965 19.4056C10.4051 19.5036 10.5543 19.55 10.7408 19.55C10.9307 19.55 11.0834 19.501 11.1919 19.3979C11.3004 19.2973 11.3784 19.1529 11.4225 18.9647C11.4666 18.7765 11.4869 18.529 11.4869 18.2222ZM12.3484 18.2712C12.3484 18.529 12.328 18.7533 12.2873 18.9415C12.2432 19.1271 12.1686 19.2973 12.0533 19.4494C11.9109 19.635 11.7277 19.7794 11.5005 19.8825C11.2733 19.9831 11.0223 20.0346 10.7442 20.0346C10.4254 20.0346 10.1405 19.965 9.88956 19.8284C9.6352 19.6918 9.44527 19.5036 9.31979 19.2638C9.25196 19.1323 9.20448 18.9854 9.17396 18.8281C9.14343 18.6682 9.12987 18.4955 9.12987 18.3099C9.12987 18.0727 9.14682 17.8561 9.18074 17.6654C9.21465 17.472 9.26553 17.307 9.33675 17.1704C9.46223 16.9409 9.64198 16.7682 9.87599 16.647C10.1134 16.5284 10.3949 16.4691 10.7205 16.4691C10.9375 16.4691 11.1308 16.4949 11.3072 16.549C11.4835 16.6006 11.6396 16.6779 11.7718 16.7811C11.9041 16.8842 12.0194 17.0105 12.111 17.16C12.2704 17.423 12.3484 17.7917 12.3484 18.2712Z" fill="black"/>
<path id="Vector_44" d="M5.48402 26.0236H6.83722V24.6417L5.48402 26.0236ZM6.83722 26.9982V26.5547H5.2568C5.0567 26.5547 4.90748 26.5212 4.80912 26.4542C4.71077 26.3846 4.6599 26.2943 4.6599 26.1757C4.6599 26.1448 4.66668 26.1164 4.68025 26.0855C4.6972 26.0546 4.71755 26.021 4.74808 25.9875C4.7786 25.9514 4.80573 25.9205 4.83964 25.887C4.87017 25.856 4.90747 25.8174 4.95495 25.771L6.62356 24.0874C6.73209 23.9766 6.82027 23.8967 6.89149 23.8451C6.95932 23.7961 7.0441 23.7703 7.14245 23.7703C7.46125 23.7703 7.62065 23.9096 7.62065 24.1854V26.0236H7.75631C7.9191 26.0236 8.04798 26.0391 8.14633 26.0726C8.24129 26.1061 8.29216 26.1809 8.29216 26.2917C8.29216 26.3846 8.25147 26.4516 8.17346 26.4928C8.09207 26.5341 7.97337 26.5547 7.81397 26.5547H7.62065V26.9982C7.62065 27.1193 7.58674 27.2096 7.51552 27.2689C7.4443 27.3307 7.34933 27.3591 7.22724 27.3591C7.11193 27.3591 7.01697 27.3282 6.94575 27.2689C6.87114 27.207 6.83722 27.1167 6.83722 26.9982Z" fill="black"/>
<path id="Vector_45" d="M11.0664 25.544C11.0664 25.2527 11.0461 25.0155 10.9986 24.8325C10.9511 24.6469 10.8765 24.5076 10.7646 24.4148C10.656 24.3194 10.5068 24.273 10.3135 24.273C10.0354 24.273 9.84547 24.3787 9.73694 24.5876C9.62842 24.799 9.57415 25.1238 9.57415 25.5621C9.57415 25.8612 9.59789 26.1035 9.64198 26.2943C9.68946 26.4851 9.76747 26.6294 9.87599 26.7248C9.98452 26.8228 10.1337 26.8718 10.3203 26.8718C10.5136 26.8718 10.6628 26.8228 10.7713 26.7197C10.8799 26.6191 10.9579 26.4748 11.002 26.284C11.0461 26.0958 11.0664 25.8508 11.0664 25.544ZM11.9278 25.5905C11.9278 25.8508 11.9075 26.0751 11.8668 26.2608C11.8261 26.449 11.7481 26.6165 11.6328 26.7687C11.4903 26.9569 11.3072 27.1012 11.08 27.2018C10.8527 27.3049 10.6018 27.3539 10.3271 27.3539C10.0083 27.3539 9.72338 27.2869 9.46902 27.1502C9.21466 27.0136 9.02473 26.8254 8.89925 26.5856C8.83142 26.4541 8.78394 26.3072 8.75681 26.1473C8.72628 25.9901 8.70933 25.8173 8.70933 25.6317C8.70933 25.3919 8.72628 25.178 8.7602 24.9846C8.79411 24.7938 8.84499 24.6288 8.91621 24.4896C9.04169 24.2627 9.22144 24.09 9.45545 23.9688C9.69285 23.8502 9.97435 23.7909 10.2999 23.7909C10.517 23.7909 10.7137 23.8167 10.89 23.8683C11.063 23.9224 11.219 23.9998 11.3513 24.1029C11.4869 24.206 11.5989 24.3323 11.6904 24.4819C11.8498 24.7423 11.9278 25.1135 11.9278 25.5905Z" fill="black"/>
<path id="Vector_46" d="M6.20643 32.4663C6.39636 32.4663 6.56254 32.4251 6.70498 32.3374C6.84403 32.2523 6.91186 32.1312 6.91186 31.9687C6.91186 31.8476 6.8576 31.7419 6.74568 31.6542C6.63376 31.5665 6.48453 31.5227 6.29461 31.5227C6.16913 31.5227 6.06399 31.5356 5.9792 31.564C5.89781 31.5898 5.83337 31.6258 5.7825 31.6697C5.73502 31.7161 5.69093 31.7728 5.64684 31.8424C5.60275 31.912 5.56544 31.9765 5.52814 32.0383C5.50779 32.0719 5.47048 32.0976 5.41622 32.1183C5.36196 32.1363 5.29752 32.1466 5.2263 32.1466C5.1449 32.1466 5.0669 32.1208 4.99568 32.0693C4.92446 32.0177 4.89054 31.9481 4.89054 31.863C4.89054 31.7805 4.92446 31.6929 4.98889 31.6026C5.05672 31.5124 5.15169 31.4248 5.28056 31.3423C5.40605 31.2598 5.56544 31.1953 5.75198 31.1437C5.9419 31.0948 6.15217 31.069 6.38618 31.069C6.58628 31.069 6.77281 31.0896 6.94238 31.1334C7.10856 31.1747 7.2544 31.234 7.37649 31.3139C7.50198 31.3938 7.59355 31.484 7.65798 31.5898C7.71903 31.6955 7.75294 31.8063 7.75294 31.9275C7.75294 32.0848 7.70546 32.2214 7.61389 32.3348C7.52572 32.4483 7.39345 32.5591 7.22388 32.6674C7.38667 32.7319 7.52572 32.8092 7.63763 32.8943C7.74955 32.9794 7.83434 33.0748 7.8886 33.1779C7.94626 33.281 7.97678 33.3944 7.97678 33.5156C7.97678 33.6574 7.93608 33.7992 7.86147 33.9333C7.78347 34.0673 7.67155 34.1885 7.52232 34.2916C7.3731 34.3973 7.19674 34.4798 6.99325 34.5391C6.78977 34.5984 6.56254 34.6294 6.31496 34.6294C6.06399 34.6294 5.83676 34.5958 5.64006 34.5262C5.43996 34.4592 5.27717 34.3741 5.14829 34.271C5.01942 34.1705 4.92106 34.0648 4.85324 33.9539C4.7888 33.8456 4.75488 33.7554 4.75488 33.6832C4.75488 33.5904 4.79558 33.5182 4.87358 33.4615C4.95159 33.4048 5.04994 33.3764 5.16864 33.3764C5.2263 33.3764 5.28395 33.3893 5.33822 33.4151C5.39248 33.4434 5.42639 33.4744 5.44335 33.5105C5.55188 33.7296 5.67058 33.8946 5.79606 34.0003C5.91816 34.1086 6.09451 34.1601 6.32174 34.1601C6.45062 34.1601 6.5761 34.1369 6.6982 34.088C6.8169 34.039 6.91864 33.9694 6.99665 33.874C7.07465 33.7786 7.11535 33.6677 7.11535 33.544C7.11535 33.3583 7.04752 33.2114 6.91186 33.1083C6.77959 33.0026 6.59306 32.9484 6.35227 32.9484C6.31157 32.9484 6.24713 32.951 6.15895 32.9587C6.07077 32.9639 6.01312 32.9665 5.98938 32.9665C5.87407 32.9665 5.7825 32.9458 5.72145 32.902C5.65701 32.8582 5.62649 32.7989 5.62649 32.7215C5.62649 32.6442 5.6638 32.5823 5.73841 32.5359C5.81641 32.4895 5.92833 32.4663 6.07756 32.4663H6.20643Z" fill="black"/>
<path id="Vector_47" d="M10.9274 32.8144C10.9274 32.5231 10.9036 32.2859 10.8595 32.1028C10.812 31.9172 10.734 31.778 10.6255 31.6826C10.517 31.5898 10.3678 31.5434 10.1744 31.5434C9.89635 31.5434 9.70303 31.6465 9.59451 31.8579C9.48937 32.0693 9.43511 32.3942 9.43511 32.8324C9.43511 33.1315 9.45885 33.3738 9.50294 33.5646C9.55042 33.7554 9.62842 33.8972 9.73695 33.9952C9.84548 34.0931 9.99131 34.1421 10.1778 34.1421C10.3712 34.1421 10.5238 34.0906 10.6323 33.99C10.7408 33.8895 10.8188 33.7425 10.8629 33.5543C10.907 33.3661 10.9274 33.1186 10.9274 32.8144ZM11.7888 32.8608C11.7888 33.1212 11.7684 33.3429 11.7277 33.5311C11.6837 33.7193 11.6057 33.8869 11.4937 34.039C11.3513 34.2272 11.1682 34.3716 10.9409 34.4721C10.7137 34.5727 10.4627 34.6242 10.1846 34.6242C9.86582 34.6242 9.58094 34.5572 9.32997 34.4206C9.07561 34.2839 8.88569 34.0957 8.75681 33.8534C8.69237 33.7219 8.64489 33.5775 8.61437 33.4177C8.58385 33.2604 8.57028 33.0877 8.57028 32.902C8.57028 32.6623 8.58724 32.4457 8.62115 32.2549C8.65168 32.0642 8.70594 31.8992 8.77716 31.7599C8.90265 31.5331 9.08239 31.3577 9.31641 31.2392C9.55381 31.1206 9.8353 31.0587 10.1609 31.0587C10.3779 31.0587 10.5713 31.087 10.7476 31.1386C10.924 31.1927 11.08 31.2701 11.2122 31.3732C11.3445 31.4738 11.4598 31.6001 11.5514 31.7522C11.7108 32.0126 11.7888 32.3838 11.7888 32.8608Z" fill="black"/>
<path id="Vector_48" d="M5.87743 41.2758H7.5189C7.68169 41.2758 7.80718 41.3016 7.89535 41.3506C7.98014 41.4021 8.02084 41.4717 8.02084 41.5594C8.02084 41.6367 7.98692 41.7012 7.91909 41.7553C7.85126 41.8095 7.74952 41.8352 7.61047 41.8352H5.29749C5.13809 41.8352 5.01599 41.8043 4.92781 41.7373C4.83964 41.6728 4.79555 41.5955 4.79555 41.5052C4.79555 41.4485 4.82607 41.3738 4.88033 41.2784C4.93799 41.1856 4.99903 41.1108 5.06687 41.0567C5.34497 40.8375 5.59593 40.6519 5.82316 40.4946C6.047 40.3399 6.2064 40.2368 6.30136 40.1878C6.47433 40.095 6.61677 40.0022 6.73208 39.9094C6.84739 39.8166 6.93217 39.7238 6.99322 39.6258C7.05427 39.5278 7.0814 39.4324 7.0814 39.3396C7.0814 39.2365 7.05088 39.1463 6.98644 39.0663C6.922 38.9864 6.83721 38.9245 6.7253 38.8807C6.61677 38.8369 6.49468 38.8137 6.3658 38.8137C6.09109 38.8137 5.87404 38.9039 5.71803 39.087C5.69768 39.1102 5.66037 39.1746 5.61289 39.2829C5.56202 39.3886 5.50776 39.4685 5.44671 39.5278C5.38566 39.5845 5.29409 39.6129 5.172 39.6129C5.07026 39.6129 4.98208 39.5871 4.91425 39.533C4.84303 39.4814 4.80911 39.4092 4.80911 39.319C4.80911 39.2107 4.84303 39.0973 4.90747 38.9787C4.9719 38.8601 5.06687 38.7518 5.19574 38.6538C5.32462 38.5584 5.4908 38.4785 5.6875 38.4192C5.8876 38.3599 6.11822 38.3316 6.38615 38.3316C6.70495 38.3316 6.97966 38.3702 7.20349 38.445C7.35272 38.4966 7.48159 38.5662 7.59351 38.6538C7.70204 38.7441 7.79022 38.8446 7.85126 38.9632C7.91231 39.0792 7.94283 39.2004 7.94283 39.3242C7.94283 39.5201 7.8784 39.7006 7.74952 39.8604C7.62064 40.0202 7.49177 40.1466 7.35611 40.2394C7.22045 40.3296 6.99661 40.4714 6.68121 40.6674C6.3658 40.8633 6.14874 41.0128 6.03343 41.1211C5.98256 41.1649 5.93169 41.2165 5.87743 41.2758Z" fill="black"/>
<path id="Vector_49" d="M10.9274 40.0796C10.9274 39.7908 10.9036 39.5536 10.8595 39.368C10.812 39.1849 10.734 39.0457 10.6255 38.9503C10.517 38.8549 10.3678 38.8085 10.1744 38.8085C9.89635 38.8085 9.70303 38.9142 9.59451 39.1256C9.48937 39.3371 9.43511 39.6593 9.43511 40.1002C9.43511 40.3967 9.45885 40.6416 9.50294 40.8324C9.55042 41.0206 9.62842 41.1649 9.73695 41.2629C9.84548 41.3609 9.99131 41.4099 10.1778 41.4099C10.3712 41.4099 10.5238 41.3583 10.6323 41.2578C10.7408 41.1546 10.8188 41.0103 10.8629 40.8221C10.907 40.6339 10.9274 40.3864 10.9274 40.0796ZM11.7888 40.1285C11.7888 40.3889 11.7684 40.6107 11.7277 40.7989C11.6837 40.9845 11.6057 41.1546 11.4937 41.3067C11.3513 41.4949 11.1682 41.6367 10.9409 41.7399C10.7137 41.8404 10.4627 41.892 10.1846 41.892C9.86582 41.892 9.58094 41.8224 9.32997 41.6857C9.07561 41.5517 8.88569 41.3609 8.75681 41.1211C8.69237 40.9896 8.64489 40.8453 8.61437 40.6854C8.58385 40.5256 8.57028 40.3528 8.57028 40.1672C8.57028 39.93 8.58724 39.7135 8.62115 39.5227C8.65168 39.3293 8.70594 39.1643 8.77716 39.0277C8.90265 38.7982 9.08239 38.6255 9.31641 38.5069C9.55381 38.3857 9.8353 38.3264 10.1609 38.3264C10.3779 38.3264 10.5713 38.3522 10.7476 38.4064C10.924 38.4605 11.08 38.5378 11.2122 38.6384C11.3445 38.7415 11.4598 38.8678 11.5514 39.0174C11.7108 39.2803 11.7888 39.649 11.7888 40.1285Z" fill="black"/>
<path id="Vector_50" d="M6.25727 48.7266V46.5635C5.72481 46.8729 5.36871 47.0276 5.18218 47.0276C5.094 47.0276 5.01599 47.0018 4.94816 46.9477C4.88034 46.8935 4.84642 46.8342 4.84642 46.762C4.84642 46.6821 4.88034 46.6228 4.94816 46.5841C5.0126 46.548 5.1313 46.4991 5.30427 46.4372C5.55524 46.3469 5.75873 46.2516 5.91134 46.1536C6.06396 46.053 6.19623 45.9422 6.31493 45.8184C6.43363 45.6947 6.50824 45.6173 6.54555 45.589C6.57946 45.5606 6.64729 45.5477 6.74565 45.5477C6.85756 45.5477 6.94574 45.5787 7.01357 45.6431C7.0814 45.7102 7.11532 45.7978 7.11532 45.9112V48.6337C7.11532 48.9509 6.96948 49.1107 6.68121 49.1107C6.55572 49.1107 6.45398 49.0798 6.37597 49.0127C6.29797 48.9483 6.25727 48.8529 6.25727 48.7266Z" fill="black"/>
<path id="Vector_51" d="M10.9274 47.2957C10.9274 47.007 10.9036 46.7698 10.8595 46.5841C10.812 46.3985 10.734 46.2593 10.6255 46.1665C10.517 46.0711 10.3678 46.0247 10.1744 46.0247C9.89635 46.0247 9.70303 46.1304 9.59451 46.3392C9.48937 46.5506 9.43511 46.8755 9.43511 47.3138C9.43511 47.6128 9.45885 47.8552 9.50294 48.0459C9.55042 48.2367 9.62842 48.3811 9.73695 48.4791C9.84548 48.5745 9.99131 48.6234 10.1778 48.6234C10.3712 48.6234 10.5238 48.5745 10.6323 48.4713C10.7408 48.3708 10.8188 48.2264 10.8629 48.0382C10.907 47.8474 10.9274 47.6025 10.9274 47.2957ZM11.7888 47.3447C11.7888 47.6025 11.7684 47.8268 11.7277 48.0124C11.6837 48.2006 11.6057 48.3708 11.4937 48.5229C11.3513 48.7085 11.1682 48.8529 10.9409 48.9534C10.7137 49.0566 10.4627 49.1056 10.1846 49.1056C9.86582 49.1056 9.58094 49.0385 9.32997 48.9019C9.07561 48.7652 8.88569 48.577 8.75681 48.3373C8.69237 48.2058 8.64489 48.0588 8.61437 47.9016C8.58385 47.7417 8.57028 47.569 8.57028 47.3834C8.57028 47.1436 8.58724 46.9296 8.62115 46.7363C8.65168 46.5455 8.70594 46.3805 8.77716 46.2438C8.90265 46.0144 9.08239 45.8416 9.31641 45.7205C9.55381 45.6019 9.8353 45.5426 10.1609 45.5426C10.3779 45.5426 10.5713 45.5684 10.7476 45.6225C10.924 45.6741 11.08 45.7514 11.2122 45.8545C11.3445 45.9577 11.4598 46.084 11.5514 46.2335C11.7108 46.4939 11.7888 46.8652 11.7888 47.3447Z" fill="black"/>
<path id="Vector_52" d="M7.5223 54.6176C7.5223 54.3263 7.49856 54.0891 7.45108 53.906C7.40699 53.7204 7.32899 53.5812 7.22046 53.4858C7.11193 53.393 6.95932 53.3466 6.766 53.3466C6.49129 53.3466 6.29798 53.4523 6.18945 53.6611C6.08092 53.8725 6.02666 54.1974 6.02666 54.6357C6.02666 54.9347 6.0504 55.1771 6.09788 55.3678C6.14197 55.5586 6.21997 55.703 6.3285 55.7984C6.43703 55.8964 6.58625 55.9453 6.77278 55.9453C6.9661 55.9453 7.11532 55.8938 7.22724 55.7932C7.33577 55.6927 7.41038 55.5483 7.45447 55.3575C7.49856 55.1693 7.5223 54.9218 7.5223 54.6176ZM8.38373 54.664C8.38373 54.9244 8.35999 55.1487 8.3193 55.3343C8.2786 55.5225 8.20059 55.6901 8.08868 55.8422C7.94284 56.0304 7.7597 56.1748 7.53247 56.2753C7.30864 56.3759 7.05428 56.4274 6.77957 56.4274C6.46077 56.4274 6.17589 56.3604 5.92152 56.2238C5.67056 56.0871 5.48063 55.8989 5.35176 55.6566C5.28732 55.5251 5.23984 55.3807 5.20932 55.2209C5.17879 55.0636 5.16183 54.8909 5.16183 54.7053C5.16183 54.4655 5.17879 54.2489 5.21271 54.0582C5.24662 53.8674 5.30089 53.7024 5.37211 53.5632C5.4942 53.3363 5.67395 53.1635 5.90796 53.0424C6.14536 52.9238 6.42685 52.8645 6.75244 52.8645C6.96949 52.8645 7.1662 52.8903 7.34255 52.9418C7.51891 52.996 7.67152 53.0733 7.80718 53.1764C7.93945 53.277 8.05137 53.4033 8.14294 53.5554C8.30234 53.8158 8.38373 54.1871 8.38373 54.664Z" fill="black"/>
<path id="Vector_53" d="M3.21178 62.6098H2.22147C2.06885 62.6098 1.95354 62.584 1.87554 62.5299C1.79753 62.4757 1.75684 62.4087 1.75684 62.3236C1.75684 62.2385 1.79753 62.1689 1.87215 62.1174C1.95015 62.0632 2.06546 62.0374 2.22147 62.0374H3.21178C3.36779 62.0374 3.4831 62.0632 3.5611 62.1174C3.63571 62.1689 3.67641 62.2385 3.67641 62.3236C3.67641 62.4087 3.6391 62.4757 3.5611 62.5299C3.48649 62.584 3.37118 62.6098 3.21178 62.6098Z" fill="black"/>
<path id="Vector_54" d="M5.60278 63.262V61.1016C5.07032 61.4084 4.71082 61.563 4.52768 61.563C4.4395 61.563 4.3615 61.5373 4.29367 61.4831C4.22584 61.4316 4.19193 61.3697 4.19193 61.3001C4.19193 61.2202 4.22584 61.1609 4.29367 61.1222C4.35811 61.0835 4.47681 61.0345 4.64638 60.9752C4.90074 60.885 5.10423 60.7896 5.25685 60.6891C5.40607 60.5885 5.54173 60.4777 5.66043 60.3539C5.77574 60.2302 5.85375 60.1554 5.88766 60.127C5.92497 60.0987 5.9928 60.0832 6.09115 60.0832C6.20307 60.0832 6.29125 60.1167 6.35908 60.1812C6.42351 60.2456 6.45743 60.3359 6.45743 60.4493V63.1692C6.45743 63.4889 6.31499 63.6488 6.02671 63.6488C5.90123 63.6488 5.79609 63.6152 5.71809 63.5508C5.64348 63.4863 5.60278 63.3909 5.60278 63.262Z" fill="black"/>
<path id="Vector_55" d="M10.2728 61.8338C10.2728 61.5424 10.2491 61.3053 10.205 61.1196C10.1575 60.9366 10.0795 60.7974 9.97095 60.702C9.86242 60.6092 9.70981 60.5602 9.51649 60.5602C9.24178 60.5602 9.04847 60.6659 8.93994 60.8773C8.83142 61.0887 8.78054 61.4135 8.78054 61.8518C8.78054 62.1483 8.80089 62.3932 8.84837 62.584C8.89585 62.7722 8.97047 62.9166 9.08238 63.0145C9.19091 63.1125 9.33675 63.1615 9.52328 63.1615C9.71659 63.1615 9.86921 63.1099 9.97773 63.0094C10.0863 62.9063 10.1609 62.7619 10.205 62.5737C10.2491 62.3855 10.2728 62.138 10.2728 61.8338ZM11.1342 61.8802C11.1342 62.1406 11.1139 62.3623 11.0698 62.5505C11.0291 62.7361 10.9511 62.9063 10.8392 63.0584C10.6967 63.2466 10.5102 63.391 10.2864 63.4915C10.0591 63.592 9.80816 63.6436 9.53006 63.6436C9.21126 63.6436 8.92638 63.574 8.67541 63.4399C8.42105 63.3033 8.23113 63.1151 8.10225 62.8728C8.03781 62.7413 7.99033 62.5969 7.95981 62.437C7.92928 62.2772 7.91572 62.1045 7.91572 61.9214C7.91572 61.6817 7.93268 61.4651 7.9632 61.2743C7.99711 61.081 8.05138 60.9185 8.1226 60.7793C8.24469 60.5524 8.42444 60.3771 8.66184 60.2585C8.89585 60.1374 9.17735 60.0781 9.50632 60.0781C9.71998 60.0781 9.91669 60.1064 10.093 60.158C10.2694 60.2121 10.4254 60.2895 10.5577 60.39C10.6899 60.4931 10.8019 60.6195 10.8934 60.7716C11.0528 61.032 11.1342 61.4006 11.1342 61.8802Z" fill="black"/>
<path id="Vector_56" d="M3.21178 69.826H2.22147C2.06885 69.826 1.95354 69.7976 1.87554 69.746C1.79753 69.6919 1.75684 69.6223 1.75684 69.5398C1.75684 69.4547 1.79753 69.3851 1.87215 69.331C1.95015 69.2794 2.06546 69.251 2.22147 69.251H3.21178C3.36779 69.251 3.4831 69.2794 3.5611 69.331C3.63571 69.3851 3.67641 69.4547 3.67641 69.5398C3.67641 69.6223 3.6391 69.6919 3.5611 69.746C3.48649 69.7976 3.37118 69.826 3.21178 69.826Z" fill="black"/>
<path id="Vector_57" d="M5.22292 70.2436H6.86439C7.02718 70.2436 7.15266 70.2694 7.23745 70.3184C7.32563 70.3699 7.36633 70.4395 7.36633 70.5246C7.36633 70.6045 7.33241 70.669 7.26458 70.7231C7.19675 70.7773 7.09501 70.8031 6.95596 70.8031H4.63958C4.48358 70.8031 4.36148 70.7721 4.2733 70.7051C4.18513 70.6406 4.14104 70.5633 4.14104 70.4731C4.14104 70.4163 4.16817 70.3416 4.22582 70.2462C4.28348 70.1534 4.34453 70.0786 4.41235 70.0245C4.69046 69.8053 4.94142 69.6197 5.16526 69.4624C5.3891 69.3052 5.55189 69.2046 5.64685 69.1556C5.81982 69.0628 5.96226 68.97 6.07757 68.8772C6.18949 68.7844 6.27767 68.689 6.33871 68.5936C6.39637 68.4956 6.42689 68.4003 6.42689 68.3049C6.42689 68.2043 6.39637 68.1141 6.33193 68.0342C6.26749 67.9542 6.17931 67.8924 6.07078 67.8485C5.95887 67.8047 5.84016 67.7815 5.71129 67.7815C5.43658 67.7815 5.21953 67.8717 5.06352 68.0548C5.03978 68.078 5.00586 68.1424 4.95838 68.2481C4.90751 68.3564 4.85325 68.4363 4.7922 68.4931C4.72776 68.5524 4.63619 68.5807 4.51749 68.5807C4.41235 68.5807 4.32757 68.5524 4.25635 68.5008C4.18852 68.4492 4.1546 68.377 4.1546 68.2868C4.1546 68.1785 4.18513 68.0651 4.24956 67.9465C4.31739 67.8253 4.41235 67.7196 4.54123 67.6217C4.67011 67.5263 4.8329 67.4463 5.03299 67.387C5.2297 67.3278 5.46371 67.2994 5.72825 67.2994C6.05044 67.2994 6.32175 67.3381 6.54898 67.4128C6.69482 67.4644 6.82369 67.534 6.93561 67.6217C7.04753 67.7093 7.13232 67.8124 7.19675 67.931C7.2578 68.047 7.28832 68.1656 7.28832 68.292C7.28832 68.4879 7.22389 68.6658 7.09501 68.8282C6.96613 68.9881 6.83387 69.1144 6.7016 69.2046C6.56594 69.2974 6.3421 69.4392 6.0267 69.6352C5.71129 69.8285 5.49423 69.9806 5.37553 70.0889C5.32466 70.1328 5.27379 70.1817 5.22292 70.2436Z" fill="black"/>
<path id="Vector_58" d="M10.2728 69.0474C10.2728 68.7586 10.2491 68.5214 10.205 68.3358C10.1575 68.1528 10.0795 68.011 9.97095 67.9182C9.86242 67.8228 9.70981 67.7764 9.51649 67.7764C9.24178 67.7764 9.04847 67.8821 8.93994 68.0935C8.83142 68.3023 8.78054 68.6271 8.78054 69.068C8.78054 69.3645 8.80089 69.6094 8.84837 69.7976C8.89585 69.9884 8.97047 70.1328 9.08238 70.2307C9.19091 70.3261 9.33675 70.3751 9.52328 70.3751C9.71659 70.3751 9.86921 70.3261 9.97773 70.223C10.0863 70.1225 10.1609 69.9781 10.205 69.7899C10.2491 69.6017 10.2728 69.3542 10.2728 69.0474ZM11.1342 69.0964C11.1342 69.3542 11.1139 69.5785 11.0698 69.7667C11.0291 69.9523 10.9511 70.1225 10.8392 70.2746C10.6967 70.4602 10.5102 70.6046 10.2864 70.7051C10.0591 70.8082 9.80816 70.8572 9.53006 70.8572C9.21126 70.8572 8.92638 70.7902 8.67541 70.6535C8.42105 70.5169 8.23113 70.3287 8.10225 70.0889C8.03781 69.9575 7.99033 69.8131 7.95981 69.6532C7.92928 69.4934 7.91572 69.3207 7.91572 69.135C7.91572 68.8953 7.93268 68.6813 7.9632 68.4905C7.99711 68.2971 8.05138 68.1321 8.1226 67.9955C8.24469 67.766 8.42444 67.5933 8.66184 67.4747C8.89585 67.3535 9.17735 67.2943 9.50632 67.2943C9.71998 67.2943 9.91669 67.32 10.093 67.3742C10.2694 67.4257 10.4254 67.5057 10.5577 67.6062C10.6899 67.7093 10.8019 67.8357 10.8934 67.9852C11.0528 68.2482 11.1342 68.6168 11.1342 69.0964Z" fill="black"/>
<path id="Vector_59" d="M3.49323 77.0395H2.49952C2.3503 77.0395 2.23499 77.0137 2.15699 76.9596C2.07559 76.908 2.03828 76.8384 2.03828 76.7559C2.03828 76.6683 2.07559 76.6012 2.15359 76.5471C2.22821 76.4955 2.34352 76.4672 2.49952 76.4672H3.49323C3.64923 76.4672 3.76454 76.4955 3.84255 76.5471C3.91716 76.6012 3.95447 76.6683 3.95447 76.7559C3.95447 76.8384 3.91716 76.908 3.84255 76.9596C3.76794 77.0137 3.64923 77.0395 3.49323 77.0395Z" fill="black"/>
<path id="Vector_60" d="M5.82998 75.9155C6.02329 75.9155 6.18948 75.8742 6.32853 75.7892C6.46758 75.7015 6.5388 75.5803 6.5388 75.4205C6.5388 75.2967 6.48114 75.1936 6.36922 75.106C6.2607 75.0183 6.11147 74.9719 5.92155 74.9719C5.79267 74.9719 5.68754 74.9874 5.60614 75.0132C5.52136 75.0415 5.45692 75.075 5.40944 75.1189C5.35856 75.1653 5.31448 75.222 5.27039 75.2916C5.22969 75.3612 5.18899 75.4257 5.15508 75.4875C5.13134 75.521 5.09403 75.5468 5.03977 75.5674C4.9855 75.5855 4.92446 75.5958 4.85324 75.5958C4.76845 75.5958 4.69045 75.57 4.61922 75.5185C4.5514 75.4669 4.51409 75.3973 4.51409 75.3122C4.51409 75.2297 4.548 75.1446 4.61583 75.0518C4.68027 74.9616 4.77523 74.8739 4.90411 74.7914C5.02959 74.7089 5.18899 74.6445 5.37552 74.5929C5.56544 74.5439 5.77572 74.5182 6.00973 74.5182C6.21322 74.5182 6.39636 74.5388 6.56593 74.5826C6.73211 74.6239 6.87794 74.6832 7.00343 74.7631C7.12552 74.843 7.22048 74.9358 7.28153 75.0389C7.34597 75.1446 7.37649 75.2555 7.37649 75.3767C7.37649 75.5365 7.3324 75.6706 7.24083 75.784C7.14926 75.8974 7.01699 76.0083 6.84742 76.1166C7.01021 76.1836 7.14926 76.2584 7.26118 76.3435C7.3731 76.4285 7.45789 76.5239 7.51554 76.6271C7.5732 76.7328 7.60033 76.8436 7.60033 76.9648C7.60033 77.1092 7.56302 77.2484 7.48502 77.3824C7.40701 77.5165 7.2951 77.6377 7.14587 77.7434C7.00004 77.8491 6.82029 77.929 6.6168 77.9909C6.41331 78.0502 6.18608 78.0785 5.93851 78.0785C5.68754 78.0785 5.4637 78.045 5.2636 77.9754C5.06351 77.9084 4.90072 77.8233 4.77184 77.7202C4.64296 77.6196 4.54461 77.5139 4.48017 77.4031C4.41234 77.2948 4.38182 77.2046 4.38182 77.1324C4.38182 77.0421 4.41913 76.9674 4.49713 76.9107C4.57513 76.8539 4.67349 76.8256 4.79219 76.8256C4.84984 76.8256 4.9075 76.8385 4.96176 76.8668C5.01603 76.8926 5.05333 76.9235 5.07029 76.9596C5.17882 77.1788 5.29413 77.3438 5.41961 77.4495C5.5451 77.5578 5.71806 77.6093 5.94529 77.6093C6.07756 77.6093 6.19965 77.5861 6.32174 77.5371C6.44384 77.4907 6.54219 77.4185 6.62019 77.3232C6.6982 77.2278 6.73889 77.1169 6.73889 76.9932C6.73889 76.8075 6.67107 76.6632 6.5388 76.5574C6.40314 76.4517 6.21661 76.3976 5.9792 76.3976C5.93512 76.3976 5.87068 76.4028 5.7825 76.4079C5.69432 76.4157 5.63667 76.4182 5.61293 76.4182C5.49761 76.4182 5.40944 76.395 5.345 76.3512C5.28395 76.3099 5.25004 76.2481 5.25004 76.1707C5.25004 76.0934 5.29073 76.0341 5.36535 75.9851C5.43996 75.9387 5.55188 75.9155 5.7011 75.9155H5.82998Z" fill="black"/>
<path id="Vector_61" d="M10.5509 76.2635C10.5509 75.9722 10.5306 75.735 10.4831 75.552C10.439 75.3663 10.361 75.2271 10.2525 75.1343C10.1406 75.0389 9.99133 74.9925 9.79801 74.9925C9.51991 74.9925 9.32999 75.0982 9.22146 75.307C9.11294 75.5184 9.05867 75.8433 9.05867 76.2816C9.05867 76.5806 9.08241 76.823 9.12989 77.0138C9.17398 77.2045 9.25199 77.3489 9.36051 77.4443C9.46904 77.5423 9.61827 77.5913 9.8048 77.5913C9.99811 77.5913 10.1473 77.5397 10.2559 77.4391C10.3644 77.3386 10.4424 77.1942 10.4865 77.0034C10.5306 76.8152 10.5509 76.5703 10.5509 76.2635ZM11.4124 76.3099C11.4124 76.5703 11.392 76.7946 11.3513 76.9802C11.3106 77.1684 11.2326 77.336 11.1173 77.4881C10.9749 77.6763 10.7917 77.8207 10.5645 77.9213C10.3373 78.0244 10.0863 78.0734 9.81158 78.0734C9.49278 78.0734 9.2079 78.0063 8.95354 77.8697C8.69918 77.7331 8.50925 77.5449 8.38377 77.3051C8.31933 77.1736 8.27185 77.0266 8.24133 76.8668C8.2108 76.7095 8.19385 76.5368 8.19385 76.3512C8.19385 76.1114 8.2108 75.8974 8.24472 75.7041C8.27863 75.5133 8.32951 75.3483 8.40073 75.2116C8.52621 74.9822 8.70596 74.8095 8.93997 74.6883C9.17737 74.5697 9.45887 74.5104 9.78445 74.5104C10.0015 74.5104 10.1982 74.5362 10.3746 74.5877C10.5475 74.6419 10.7035 74.7192 10.8358 74.8224C10.9715 74.9229 11.0834 75.0492 11.175 75.2013C11.3344 75.4617 11.4124 75.833 11.4124 76.3099Z" fill="black"/>
<path id="Vector_62" d="M43.1938 24.0101V21.847C42.6613 22.1564 42.3052 22.3111 42.1187 22.3111C42.0305 22.3111 41.9525 22.2853 41.8847 22.2312C41.8169 22.1796 41.7829 22.1177 41.7829 22.0481C41.7829 21.9656 41.8169 21.9063 41.8847 21.8702C41.9525 21.8316 42.0678 21.7826 42.2408 21.7207C42.4918 21.6305 42.6953 21.5377 42.8479 21.4371C43.0005 21.3366 43.1328 21.2257 43.2515 21.102C43.3702 20.9782 43.4448 20.9009 43.4821 20.8725C43.516 20.8441 43.5838 20.8313 43.6822 20.8313C43.7941 20.8313 43.8823 20.8622 43.9501 20.9292C44.0179 20.9937 44.0518 21.0813 44.0518 21.1973V23.9173C44.0518 24.237 43.906 24.3942 43.6211 24.3942C43.4922 24.3942 43.3905 24.3633 43.3125 24.2963C43.2345 24.2318 43.1938 24.1364 43.1938 24.0101Z" fill="black"/>
<path id="Vector_63" d="M46.6396 23.7755H48.281C48.4472 23.7755 48.5693 23.8013 48.6575 23.8502C48.7423 23.9018 48.7864 23.9714 48.7864 24.0591C48.7864 24.1364 48.7524 24.2009 48.6846 24.255C48.6168 24.3091 48.5117 24.3349 48.3726 24.3349H46.0596C45.9036 24.3349 45.7815 24.304 45.6933 24.237C45.6052 24.1725 45.5611 24.0952 45.5611 24.0049C45.5611 23.9482 45.5882 23.8734 45.6459 23.778C45.7001 23.6852 45.7646 23.6105 45.829 23.5563C46.1105 23.3372 46.3615 23.1516 46.5853 22.9943C46.8091 22.8396 46.9685 22.7365 47.0669 22.6875C47.2365 22.5947 47.3823 22.5019 47.4942 22.4091C47.6095 22.3163 47.6977 22.2209 47.7554 22.1255C47.8164 22.0275 47.8469 21.9321 47.8469 21.8393C47.8469 21.7362 47.813 21.6459 47.7486 21.566C47.6841 21.4861 47.5993 21.4242 47.4874 21.3804C47.3789 21.3366 47.2602 21.3134 47.1279 21.3134C46.8532 21.3134 46.6396 21.4036 46.4802 21.5866C46.4598 21.6098 46.4259 21.6743 46.375 21.78C46.3275 21.8883 46.2699 21.9682 46.2088 22.0249C46.1478 22.0842 46.0562 22.1126 45.9375 22.1126C45.8324 22.1126 45.7442 22.0842 45.6764 22.0327C45.6086 21.9811 45.5712 21.9089 45.5712 21.8187C45.5712 21.7104 45.6052 21.597 45.6696 21.4758C45.734 21.3572 45.8324 21.2515 45.9613 21.1535C46.0901 21.0581 46.2529 20.9782 46.4496 20.9189C46.6497 20.8596 46.8804 20.8313 47.1483 20.8313C47.4671 20.8313 47.7418 20.8699 47.969 20.9447C48.1149 20.9963 48.2437 21.0659 48.3556 21.1535C48.4676 21.2438 48.5524 21.3443 48.6134 21.4603C48.6778 21.5789 48.7084 21.7001 48.7084 21.8238C48.7084 22.0198 48.6439 22.2002 48.515 22.3601C48.3862 22.5199 48.2539 22.6463 48.1182 22.7365C47.986 22.8293 47.7587 22.9711 47.4433 23.167C47.1279 23.3604 46.9143 23.5125 46.7956 23.6208C46.7447 23.662 46.6938 23.7136 46.6396 23.7755Z" fill="black"/>
<path id="Vector_64" d="M51.6894 22.5792C51.6894 22.2905 51.6691 22.0533 51.6216 21.8677C51.5775 21.6846 51.4995 21.5428 51.391 21.45C51.2791 21.3546 51.1298 21.3082 50.9365 21.3082C50.6584 21.3082 50.4685 21.4139 50.36 21.6253C50.2515 21.8341 50.1972 22.159 50.1972 22.5998C50.1972 22.8963 50.2209 23.1413 50.2684 23.3295C50.3125 23.5202 50.3905 23.6646 50.499 23.7626C50.6076 23.8605 50.7568 23.907 50.9433 23.907C51.1366 23.907 51.2859 23.858 51.3944 23.7548C51.5029 23.6543 51.5809 23.5099 51.625 23.3217C51.6691 23.1335 51.6894 22.886 51.6894 22.5792ZM52.5509 22.6282C52.5509 22.886 52.5305 23.1103 52.4898 23.2985C52.4491 23.4841 52.3711 23.6543 52.2558 23.8064C52.1134 23.992 51.9302 24.1364 51.703 24.2395C51.4758 24.3401 51.2248 24.3916 50.9501 24.3916C50.6313 24.3916 50.343 24.322 50.0921 24.1854C49.8411 24.0488 49.6478 23.8605 49.5223 23.6208C49.4579 23.4893 49.4104 23.3449 49.3798 23.1851C49.3493 23.0252 49.3324 22.8525 49.3324 22.6669C49.3324 22.4297 49.3493 22.2131 49.3832 22.0223C49.4172 21.829 49.468 21.664 49.5392 21.5273C49.6647 21.2979 49.8445 21.1252 50.0785 21.0066C50.3159 20.8854 50.5974 20.8261 50.923 20.8261C51.14 20.8261 51.3367 20.8519 51.5131 20.906C51.6894 20.9576 51.8421 21.0375 51.9743 21.138C52.11 21.2412 52.2219 21.3675 52.3135 21.517C52.4729 21.78 52.5509 22.1487 52.5509 22.6282Z" fill="black"/>
<path id="Vector_65" d="M43.4753 31.1206V28.9575C42.9429 29.2669 42.5834 29.4216 42.4002 29.4216C42.312 29.4216 42.234 29.3932 42.1662 29.3416C42.0984 29.2875 42.0645 29.2256 42.0645 29.156C42.0645 29.0761 42.0984 29.0168 42.1628 28.9781C42.2307 28.9395 42.3494 28.8905 42.5189 28.8312C42.7733 28.7409 42.9768 28.6456 43.1294 28.545C43.2786 28.447 43.4143 28.3336 43.533 28.2099C43.6483 28.0887 43.7263 28.0113 43.7602 27.983C43.7975 27.9546 43.8653 27.9391 43.9637 27.9391C44.0722 27.9391 44.1638 27.9727 44.2282 28.0371C44.2961 28.1016 44.33 28.1918 44.33 28.3052V31.0277C44.33 31.3449 44.1875 31.5047 43.8993 31.5047C43.7704 31.5047 43.6686 31.4712 43.5906 31.4067C43.5126 31.3423 43.4753 31.2469 43.4753 31.1206Z" fill="black"/>
<path id="Vector_66" d="M48.1454 29.6897C48.1454 29.3984 48.1217 29.1612 48.0742 28.9781C48.0301 28.7925 47.9521 28.6533 47.8436 28.5605C47.735 28.4651 47.5824 28.4187 47.3891 28.4187C47.1144 28.4187 46.9211 28.5244 46.8126 28.7332C46.704 28.9446 46.6498 29.2695 46.6498 29.7078C46.6498 30.0068 46.6735 30.2492 46.721 30.4399C46.7651 30.6307 46.8431 30.7751 46.9516 30.8705C47.0635 30.9685 47.2094 31.0174 47.3959 31.0174C47.5892 31.0174 47.7384 30.9659 47.8504 30.8653C47.9589 30.7648 48.0335 30.6204 48.0776 30.4296C48.1217 30.2414 48.1454 29.9939 48.1454 29.6897ZM49.0068 29.7361C49.0068 29.9965 48.9865 30.2208 48.9424 30.4064C48.9017 30.5946 48.8237 30.7622 48.7118 30.9143C48.5693 31.1025 48.3828 31.2469 48.1556 31.3474C47.9318 31.448 47.6774 31.4996 47.4027 31.4996C47.0839 31.4996 46.799 31.4325 46.5446 31.2959C46.2937 31.1592 46.1037 30.971 45.9749 30.7313C45.9104 30.5998 45.863 30.4528 45.8324 30.293C45.8019 30.1357 45.785 29.963 45.785 29.7774C45.785 29.5376 45.8019 29.3236 45.8358 29.1303C45.8697 28.9395 45.924 28.7745 45.9952 28.6353C46.1173 28.4084 46.2971 28.2356 46.5345 28.1145C46.7685 27.9959 47.05 27.9366 47.3756 27.9366C47.5926 27.9366 47.7893 27.9624 47.9657 28.0139C48.142 28.0681 48.2946 28.1454 48.4303 28.2485C48.5626 28.3491 48.6745 28.478 48.7661 28.6275C48.9255 28.8879 49.0068 29.2592 49.0068 29.7361Z" fill="black"/>
<path id="Vector_67" d="M51.971 29.6897C51.971 29.3984 51.9472 29.1612 51.9031 28.9781C51.8557 28.7925 51.7777 28.6533 51.6691 28.5605C51.5606 28.4651 51.408 28.4187 51.2147 28.4187C50.94 28.4187 50.7466 28.5244 50.6381 28.7332C50.533 28.9446 50.4787 29.2695 50.4787 29.7078C50.4787 30.0068 50.5025 30.2492 50.5465 30.4399C50.594 30.6307 50.672 30.7751 50.7806 30.8705C50.8891 30.9685 51.0349 31.0174 51.2214 31.0174C51.4148 31.0174 51.5674 30.9659 51.6759 30.8653C51.7844 30.7648 51.8624 30.6204 51.9065 30.4296C51.9506 30.2414 51.971 29.9939 51.971 29.6897ZM52.8324 29.7361C52.8324 29.9965 52.8121 30.2208 52.768 30.4064C52.7273 30.5946 52.6493 30.7622 52.5373 30.9143C52.3949 31.1025 52.2118 31.2469 51.9845 31.3474C51.7573 31.448 51.5063 31.4996 51.2282 31.4996C50.9094 31.4996 50.6246 31.4325 50.3736 31.2959C50.1192 31.1592 49.9293 30.971 49.8004 30.7313C49.736 30.5998 49.6885 30.4528 49.658 30.293C49.6275 30.1357 49.6139 29.963 49.6139 29.7774C49.6139 29.5376 49.6308 29.3236 49.6648 29.1303C49.6953 28.9395 49.7496 28.7745 49.8208 28.6353C49.9429 28.4084 50.1226 28.2356 50.36 28.1145C50.594 27.9959 50.8755 27.9366 51.2045 27.9366C51.4182 27.9366 51.6149 27.9624 51.7912 28.0139C51.9676 28.0681 52.1236 28.1454 52.2558 28.2485C52.3881 28.3491 52.5 28.478 52.595 28.6275C52.751 28.8879 52.8324 29.2592 52.8324 29.7361Z" fill="black"/>
<path id="Vector_68" d="M44.5368 35.7096C44.3401 35.7096 44.1807 35.756 44.062 35.8488C43.9399 35.9416 43.8789 36.0602 43.8789 36.2072C43.8789 36.3412 43.9399 36.4547 44.0654 36.5423C44.1875 36.6326 44.3469 36.6764 44.5436 36.6764C44.642 36.6764 44.7302 36.6661 44.8116 36.6429C44.8929 36.6197 44.9608 36.5862 45.0184 36.5423C45.0761 36.5011 45.1202 36.4521 45.1541 36.3928C45.1846 36.3361 45.2016 36.2716 45.2016 36.202C45.2016 36.1092 45.171 36.0241 45.1168 35.952C45.0625 35.8772 44.9845 35.8179 44.8828 35.7741C44.781 35.7328 44.6657 35.7096 44.5368 35.7096ZM45.3237 37.7386C45.3237 37.6174 45.2897 37.5091 45.2219 37.4163C45.1541 37.3261 45.0625 37.2539 44.9404 37.2049C44.8183 37.1559 44.6827 37.1327 44.5301 37.1327C44.3164 37.1327 44.1366 37.1843 43.9942 37.2926C43.8484 37.4009 43.7772 37.5504 43.7772 37.7437C43.7772 37.8675 43.8111 37.9784 43.8789 38.0712C43.9467 38.1666 44.0383 38.2387 44.157 38.2903C44.2723 38.3419 44.4046 38.3677 44.5504 38.3677C44.6962 38.3677 44.8285 38.3419 44.9438 38.2877C45.0625 38.2362 45.1541 38.164 45.2219 38.0686C45.2897 37.9732 45.3237 37.8623 45.3237 37.7386ZM43.0683 36.1659C43.0683 36.0087 43.126 35.8591 43.2379 35.7199C43.3532 35.5781 43.5228 35.4673 43.7432 35.3822C43.9637 35.2997 44.2214 35.2559 44.5165 35.2559C44.7675 35.2559 44.9879 35.2816 45.1744 35.3306C45.3644 35.3796 45.5204 35.4466 45.6459 35.5343C45.7713 35.6194 45.8663 35.7173 45.9273 35.8256C45.9884 35.9339 46.0189 36.0499 46.0189 36.1711C46.0189 36.3258 45.9647 36.465 45.8595 36.5862C45.7544 36.7099 45.595 36.8105 45.3847 36.8878C45.5645 36.9394 45.7103 37.0064 45.829 37.0915C45.9477 37.1766 46.0359 37.2745 46.0935 37.388C46.1546 37.4988 46.1851 37.6226 46.1851 37.7592C46.1851 37.9577 46.1207 38.1408 45.9918 38.3006C45.8663 38.4656 45.6764 38.592 45.4288 38.6822C45.1812 38.775 44.8896 38.8214 44.5572 38.8214C44.2079 38.8214 43.9094 38.775 43.6618 38.6822C43.4143 38.592 43.2277 38.4656 43.1022 38.3032C42.9768 38.1434 42.9157 37.9629 42.9157 37.7644C42.9157 37.3364 43.1803 37.0451 43.7127 36.8878C43.282 36.7357 43.0683 36.4934 43.0683 36.1659Z" fill="black"/>
<path id="Vector_69" d="M49.1255 37.0116C49.1255 36.7202 49.1017 36.483 49.0543 36.2974C49.0102 36.1144 48.9322 35.9752 48.8236 35.8798C48.7151 35.787 48.5625 35.738 48.3692 35.738C48.0945 35.738 47.9012 35.8437 47.7926 36.0551C47.6841 36.2665 47.6298 36.5913 47.6298 37.0296C47.6298 37.3261 47.6536 37.571 47.7011 37.7618C47.7452 37.9526 47.8232 38.0944 47.9317 38.1923C48.0402 38.2903 48.1894 38.3393 48.376 38.3393C48.5693 38.3393 48.7185 38.2877 48.8304 38.1872C48.9389 38.0841 49.0136 37.9397 49.0577 37.7515C49.1017 37.5633 49.1255 37.3158 49.1255 37.0116ZM49.9869 37.058C49.9869 37.3184 49.9666 37.5401 49.9225 37.7283C49.8818 37.9139 49.8038 38.0841 49.6919 38.2362C49.546 38.4244 49.3629 38.5687 49.1357 38.6693C48.9118 38.7698 48.6575 38.8214 48.3827 38.8214C48.0639 38.8214 47.7791 38.7518 47.5247 38.6177C47.2737 38.4811 47.0838 38.2929 46.9549 38.0505C46.8905 37.9191 46.843 37.7747 46.8125 37.6148C46.782 37.455 46.765 37.2848 46.765 37.0992C46.765 36.8595 46.782 36.6429 46.8159 36.4521C46.8498 36.2613 46.9007 36.0963 46.9719 35.9571C47.0974 35.7302 47.2771 35.5549 47.5145 35.4363C47.7485 35.3177 48.03 35.2559 48.3556 35.2559C48.5727 35.2559 48.7694 35.2842 48.9457 35.3358C49.1221 35.3899 49.2747 35.4673 49.4104 35.5678C49.5426 35.6709 49.6545 35.7973 49.7461 35.9468C49.9055 36.2098 49.9869 36.5784 49.9869 37.058Z" fill="black"/>
<path id="Vector_70" d="M44.6522 45.6792C44.8658 45.6792 45.0388 45.6148 45.1779 45.4833C45.3169 45.3518 45.3847 45.1817 45.3847 44.9677C45.3847 44.8233 45.3542 44.6996 45.2898 44.5964C45.2219 44.4933 45.1338 44.4134 45.0218 44.3592C44.9065 44.3051 44.7844 44.2767 44.6454 44.2767C44.5165 44.2767 44.3944 44.3025 44.2757 44.3567C44.157 44.4082 44.0621 44.483 43.9874 44.5835C43.9162 44.6815 43.8789 44.7975 43.8789 44.9316C43.8789 45.1456 43.9535 45.3235 44.0994 45.4653C44.2452 45.6071 44.4317 45.6792 44.6522 45.6792ZM43.8043 44.2046C43.9468 44.0757 44.1028 43.9803 44.2689 43.9184C44.4385 43.8565 44.625 43.8256 44.8319 43.8256C45.032 43.8256 45.2152 43.8539 45.3847 43.9107C45.5543 43.9648 45.7001 44.0473 45.829 44.1504C45.9545 44.2535 46.0529 44.3747 46.1207 44.5165C46.1919 44.6583 46.2258 44.8053 46.2258 44.9599C46.2258 45.1817 46.158 45.3853 46.0223 45.5684C45.8867 45.7489 45.7001 45.8907 45.456 45.9938C45.2152 46.0969 44.9405 46.1485 44.6352 46.1485C44.2825 46.1485 43.9773 46.0814 43.7229 45.9525C43.4686 45.821 43.2718 45.6303 43.1362 45.375C43.0005 45.1224 42.9327 44.8104 42.9327 44.4443C42.9327 44.1427 42.9734 43.8771 43.0548 43.6399C43.1362 43.4028 43.2549 43.2094 43.4075 43.0521C43.5601 42.8974 43.7467 42.7814 43.9637 42.7015C44.1808 42.6216 44.4317 42.5829 44.7098 42.5829C44.9778 42.5829 45.2152 42.6216 45.4187 42.7015C45.6221 42.7814 45.7781 42.8794 45.8799 42.9954C45.985 43.114 46.0359 43.2249 46.0359 43.3332C46.0359 43.3976 46.0054 43.4569 45.9409 43.511C45.8731 43.5626 45.7917 43.591 45.69 43.591C45.6018 43.591 45.5204 43.5703 45.4458 43.5265C45.3712 43.4853 45.3135 43.426 45.2796 43.3538C45.2321 43.2584 45.1541 43.181 45.049 43.1243C44.9438 43.065 44.8218 43.0367 44.6861 43.0367C44.5742 43.0367 44.4623 43.0599 44.3537 43.1089C44.2418 43.1578 44.1502 43.2223 44.0756 43.3048C43.923 43.4724 43.8314 43.7714 43.8043 44.2046Z" fill="black"/>
<path id="Vector_71" d="M49.1255 44.3309C49.1255 44.0421 49.1017 43.8049 49.0543 43.6193C49.0102 43.4363 48.9322 43.2971 48.8236 43.2017C48.7151 43.1063 48.5625 43.0599 48.3692 43.0599C48.0945 43.0599 47.9012 43.1656 47.7926 43.377C47.6841 43.5858 47.6298 43.9132 47.6298 44.3515C47.6298 44.648 47.6536 44.8929 47.7011 45.0837C47.7452 45.2719 47.8232 45.4163 47.9317 45.5142C48.0402 45.6122 48.1894 45.6612 48.376 45.6612C48.5693 45.6612 48.7185 45.6096 48.8304 45.5091C48.9389 45.406 49.0136 45.2616 49.0577 45.0734C49.1017 44.8852 49.1255 44.6377 49.1255 44.3309ZM49.9869 44.3799C49.9869 44.6403 49.9666 44.862 49.9225 45.0502C49.8818 45.2358 49.8038 45.406 49.6919 45.5581C49.546 45.7437 49.3629 45.8881 49.1357 45.9912C48.9118 46.0917 48.6575 46.1433 48.3827 46.1433C48.0639 46.1433 47.7791 46.0737 47.5247 45.9371C47.2737 45.803 47.0838 45.6122 46.9549 45.3724C46.8905 45.241 46.843 45.0966 46.8125 44.9367C46.782 44.7769 46.765 44.6042 46.765 44.4185C46.765 44.1814 46.782 43.9648 46.8159 43.774C46.8498 43.5806 46.9007 43.4156 46.9719 43.279C47.0974 43.0496 47.2771 42.8768 47.5145 42.7582C47.7485 42.6371 48.03 42.5778 48.3556 42.5778C48.5727 42.5778 48.7694 42.6035 48.9457 42.6577C49.1221 42.7118 49.2747 42.7892 49.4104 42.8897C49.5426 42.9928 49.6545 43.1192 49.7461 43.2687C49.9055 43.5317 49.9869 43.9003 49.9869 44.3799Z" fill="black"/>
<path id="Vector_72" d="M43.6788 52.238H45.032V50.8587L43.6788 52.238ZM45.032 53.2125V52.7717H43.455C43.2549 52.7717 43.1057 52.7381 43.0073 52.6685C42.9056 52.6015 42.8581 52.5087 42.8581 52.3901C42.8581 52.3617 42.8649 52.3308 42.8784 52.2999C42.892 52.2689 42.9157 52.2354 42.9429 52.2019C42.9734 52.1684 43.0039 52.1349 43.0344 52.1039C43.0683 52.0704 43.1057 52.0317 43.1531 51.9853L44.8183 50.3018C44.9269 50.191 45.0184 50.111 45.0863 50.0621C45.1575 50.0105 45.2423 49.9847 45.3406 49.9847C45.6594 49.9847 45.8188 50.1239 45.8188 50.3998V52.238H45.9545C46.1139 52.238 46.2428 52.256 46.3411 52.2896C46.4395 52.3231 46.487 52.3953 46.487 52.5061C46.487 52.5989 46.4496 52.666 46.3683 52.7072C46.2902 52.751 46.1682 52.7717 46.0088 52.7717H45.8188V53.2125C45.8188 53.3337 45.7815 53.4265 45.7103 53.4858C45.6391 53.5451 45.5441 53.5735 45.4254 53.5735C45.3067 53.5735 45.2118 53.5425 45.1405 53.4832C45.0693 53.4214 45.032 53.3311 45.032 53.2125Z" fill="black"/>
<path id="Vector_73" d="M49.2646 51.7585C49.2646 51.4697 49.2408 51.2325 49.1967 51.0469C49.1493 50.8613 49.0713 50.7221 48.9627 50.6292C48.8542 50.5339 48.7016 50.4874 48.5083 50.4874C48.2336 50.4874 48.0403 50.5932 47.9317 50.802C47.8266 51.0134 47.7723 51.3382 47.7723 51.7765C47.7723 52.0756 47.7927 52.3205 47.8402 52.5087C47.8876 52.6995 47.9622 52.8439 48.0742 52.9418C48.1827 53.0372 48.3285 53.0862 48.5151 53.0862C48.7084 53.0862 48.861 53.0372 48.9695 52.9341C49.078 52.8335 49.156 52.6892 49.1967 52.501C49.2408 52.3128 49.2646 52.0653 49.2646 51.7585ZM50.126 51.8075C50.126 52.0653 50.1057 52.2896 50.0616 52.4752C50.0209 52.6634 49.9429 52.8335 49.831 52.9857C49.6885 53.1713 49.502 53.3157 49.2781 53.4188C49.0509 53.5193 48.7999 53.5683 48.5218 53.5683C48.203 53.5683 47.9182 53.5013 47.6672 53.3646C47.4128 53.228 47.2229 53.0398 47.094 52.8C47.0296 52.6685 46.9821 52.5216 46.9516 52.3643C46.9211 52.2045 46.9075 52.0317 46.9075 51.8461C46.9075 51.6064 46.9245 51.3924 46.955 51.2016C46.9889 51.0082 47.0432 50.8432 47.1144 50.7066C47.2365 50.4771 47.4162 50.3044 47.6536 50.1832C47.8876 50.0646 48.1691 50.0053 48.4981 50.0053C48.7118 50.0053 48.9085 50.0311 49.0848 50.0853C49.2612 50.1368 49.4172 50.2142 49.5495 50.3173C49.6817 50.4204 49.7936 50.5467 49.8852 50.6963C50.0446 50.9567 50.126 51.3279 50.126 51.8075Z" fill="black"/>
<path id="Vector_74" d="M44.3537 60.0858H45.9951C46.1579 60.0858 46.2834 60.109 46.3716 60.1606C46.4564 60.2121 46.5005 60.2817 46.5005 60.3668C46.5005 60.4441 46.4665 60.5112 46.3953 60.5653C46.3275 60.6195 46.2258 60.6452 46.0867 60.6452H43.7737C43.6143 60.6452 43.4922 60.6117 43.404 60.5473C43.3159 60.4802 43.2718 60.4029 43.2718 60.3152C43.2718 60.2585 43.3023 60.1812 43.3566 60.0884C43.4142 59.993 43.4753 59.9208 43.5431 59.8666C43.8212 59.6475 44.0722 59.4593 44.2994 59.3046C44.5232 59.1474 44.6826 59.0468 44.7776 58.9952C44.9506 58.905 45.093 58.8122 45.2083 58.7194C45.3236 58.6266 45.4084 58.5312 45.4695 58.4332C45.5305 58.3378 45.5576 58.2424 45.5576 58.147C45.5576 58.0465 45.5271 57.9563 45.4627 57.8763C45.3982 57.7964 45.3134 57.7345 45.2015 57.6881C45.093 57.6443 44.9709 57.6237 44.842 57.6237C44.5673 57.6237 44.3503 57.7139 44.1943 57.897C44.1739 57.9202 44.14 57.9846 44.0891 58.0903C44.0383 58.196 43.984 58.2785 43.9229 58.3352C43.8619 58.392 43.7703 58.4203 43.6516 58.4203C43.5465 58.4203 43.4583 58.3945 43.3905 58.343C43.3193 58.2914 43.2853 58.2192 43.2853 58.129C43.2853 58.0207 43.3193 57.9047 43.3837 57.7861C43.4481 57.6675 43.5465 57.5592 43.6754 57.4638C43.8042 57.3659 43.967 57.2885 44.1637 57.2292C44.3638 57.1699 44.5945 57.1416 44.8624 57.1416C45.1812 57.1416 45.4559 57.1777 45.6797 57.255C45.829 57.304 45.9578 57.3762 46.0664 57.4638C46.1783 57.5515 46.2665 57.6546 46.3275 57.7706C46.3885 57.8866 46.4191 58.0078 46.4191 58.1341C46.4191 58.3301 46.3546 58.508 46.2258 58.6704C46.0969 58.8302 45.968 58.9566 45.8323 59.0468C45.6967 59.1396 45.4728 59.2814 45.1574 59.4774C44.842 59.6707 44.625 59.8228 44.5097 59.9311C44.4588 59.9724 44.4079 60.0239 44.3537 60.0858Z" fill="black"/>
<path id="Vector_75" d="M49.4036 58.8896C49.4036 58.5982 49.3799 58.3636 49.3358 58.178C49.2883 57.9924 49.2103 57.8531 49.1018 57.7603C48.9932 57.6649 48.844 57.6185 48.6507 57.6185C48.3726 57.6185 48.1793 57.7242 48.0741 57.9331C47.9656 58.1445 47.9114 58.4693 47.9114 58.9076C47.9114 59.2067 47.9351 59.449 47.9792 59.6398C48.0267 59.8306 48.1047 59.9749 48.2132 60.0729C48.3217 60.1683 48.471 60.2173 48.6575 60.2173C48.8474 60.2173 49 60.1683 49.1085 60.0652C49.2171 59.9646 49.2951 59.8203 49.3392 59.6321C49.3833 59.4413 49.4036 59.1964 49.4036 58.8896ZM50.265 58.936C50.265 59.1964 50.2447 59.4206 50.204 59.6063C50.1599 59.7945 50.0819 59.9646 49.97 60.1167C49.8275 60.3024 49.6444 60.4467 49.4172 60.5473C49.1899 60.6504 48.939 60.6994 48.6609 60.6994C48.3455 60.6994 48.0572 60.6324 47.8062 60.4957C47.5519 60.3591 47.3619 60.1709 47.2331 59.9311C47.1686 59.7996 47.1211 59.6527 47.0906 59.4954C47.0601 59.3356 47.0465 59.1628 47.0465 58.9772C47.0465 58.7374 47.0635 58.5235 47.0974 58.3301C47.1313 58.1393 47.1822 57.9743 47.2534 57.8377C47.3789 57.6082 47.5586 57.4355 47.7927 57.3143C48.0301 57.1957 48.3116 57.1364 48.6371 57.1364C48.8542 57.1364 49.0509 57.1622 49.2239 57.2164C49.4002 57.2679 49.5562 57.3453 49.6885 57.4484C49.8208 57.5515 49.9361 57.6778 50.0276 57.8274C50.187 58.0878 50.265 58.459 50.265 58.936Z" fill="black"/>
<path id="Vector_76" d="M47.2568 66.5285C47.2568 66.2372 47.2331 66 47.189 65.817C47.1415 65.6313 47.0635 65.4921 46.955 65.3993C46.8464 65.3039 46.6972 65.2575 46.5039 65.2575C46.2258 65.2575 46.0325 65.3632 45.9274 65.572C45.8188 65.7834 45.7646 66.1083 45.7646 66.5466C45.7646 66.8456 45.7883 67.088 45.8324 67.2788C45.8799 67.4695 45.9579 67.6139 46.0664 67.7093C46.1749 67.8073 46.3242 67.8563 46.5107 67.8563C46.704 67.8563 46.8532 67.8047 46.9618 67.7041C47.0703 67.6036 47.1483 67.4592 47.1924 67.2684C47.2365 67.0802 47.2568 66.8327 47.2568 66.5285ZM48.1182 66.5749C48.1182 66.8353 48.0979 67.0596 48.0572 67.2452C48.0131 67.4334 47.9385 67.601 47.8232 67.7531C47.6808 67.9413 47.4976 68.0857 47.2704 68.1863C47.0432 68.2868 46.7922 68.3384 46.5141 68.3384C46.1953 68.3384 45.9104 68.2713 45.6594 68.1347C45.4051 67.998 45.2151 67.8098 45.0863 67.5701C45.0218 67.436 44.9744 67.2916 44.9438 67.1318C44.9133 66.9745 44.8997 66.8018 44.8997 66.6162C44.8997 66.3764 44.9167 66.1624 44.9506 65.9691C44.9845 65.7783 45.0354 65.6133 45.1066 65.4741C45.2321 65.2472 45.4119 65.0745 45.6459 64.9533C45.8833 64.8347 46.1648 64.7754 46.4903 64.7754C46.7074 64.7754 46.9007 64.8012 47.0771 64.8553C47.2534 64.9069 47.4094 64.9842 47.5417 65.0873C47.674 65.1879 47.7893 65.3142 47.8808 65.4663C48.0402 65.7267 48.1182 66.098 48.1182 66.5749Z" fill="black"/>
<path id="Vector_77" d="M43.5093 74.2036H42.5156C42.3663 74.2036 42.251 74.1778 42.173 74.1237C42.095 74.0695 42.0543 74.0025 42.0543 73.9174C42.0543 73.8324 42.0916 73.7627 42.1696 73.7112C42.2442 73.657 42.3596 73.6313 42.5156 73.6313H43.5093C43.6653 73.6313 43.7806 73.657 43.8586 73.7112C43.9332 73.7627 43.9705 73.8324 43.9705 73.9174C43.9705 74.0025 43.9332 74.0695 43.8586 74.1237C43.784 74.1778 43.6687 74.2036 43.5093 74.2036Z" fill="black"/>
<path id="Vector_78" d="M45.5203 74.6213H47.1618C47.3246 74.6213 47.4501 74.6471 47.5349 74.6986C47.6196 74.7476 47.6637 74.8172 47.6637 74.9049C47.6637 74.9822 47.6298 75.0467 47.562 75.1008C47.4942 75.1549 47.389 75.1833 47.25 75.1833H44.937C44.781 75.1833 44.6589 75.1498 44.5707 75.0828C44.4825 75.0183 44.4384 74.941 44.4384 74.8507C44.4384 74.794 44.4656 74.7192 44.5232 74.6239C44.5809 74.531 44.6419 74.4563 44.7064 74.4021C44.9879 74.183 45.2388 73.9974 45.4627 73.8401C45.6865 73.6854 45.8459 73.5823 45.9443 73.5333C46.1138 73.4405 46.2597 73.3477 46.3716 73.2574C46.4869 73.1646 46.5751 73.0692 46.6327 72.9713C46.6938 72.8733 46.7243 72.7779 46.7243 72.6851C46.7243 72.5846 46.6904 72.4917 46.6259 72.4118C46.5649 72.3319 46.4767 72.27 46.3648 72.2262C46.2563 72.1824 46.1376 72.1592 46.0053 72.1592C45.7306 72.1592 45.5169 72.2494 45.3575 72.4324C45.3372 72.4556 45.3033 72.5227 45.2524 72.6284C45.2049 72.7341 45.1473 72.8166 45.0862 72.8733C45.0252 72.93 44.9336 72.9584 44.8149 72.9584C44.7098 72.9584 44.6216 72.9326 44.5538 72.8785C44.4859 72.8269 44.4486 72.7547 44.4486 72.6645C44.4486 72.5562 44.4825 72.4428 44.547 72.3242C44.6114 72.2056 44.7098 72.0973 44.8386 71.9993C44.9675 71.9039 45.1303 71.8266 45.3304 71.7673C45.5271 71.708 45.7577 71.6771 46.0257 71.6771C46.3445 71.6771 46.6192 71.7157 46.8464 71.7905C46.9922 71.8421 47.1211 71.9117 47.233 71.9993C47.3449 72.0896 47.4297 72.1927 47.4908 72.3087C47.5552 72.4247 47.5857 72.5459 47.5857 72.6696C47.5857 72.8681 47.5213 73.046 47.3924 73.2059C47.2635 73.3657 47.1313 73.4921 46.9956 73.5849C46.8633 73.6751 46.6395 73.8169 46.3207 74.0128C46.0053 74.2088 45.7916 74.3583 45.6729 74.4666C45.6221 74.5104 45.5712 74.562 45.5203 74.6213Z" fill="black"/>
<path id="Vector_79" d="M50.5703 73.425C50.5703 73.1363 50.5465 72.8991 50.4991 72.7135C50.455 72.5304 50.377 72.3912 50.2684 72.2958C50.1565 72.203 50.0073 72.154 49.814 72.154C49.5359 72.154 49.346 72.2597 49.2374 72.4711C49.1289 72.6825 49.0746 73.0074 49.0746 73.4457C49.0746 73.7421 49.0984 73.9871 49.1459 74.1778C49.19 74.366 49.268 74.5104 49.3765 74.6084C49.485 74.7064 49.6342 74.7553 49.8208 74.7553C50.0141 74.7553 50.1633 74.7038 50.2718 74.6032C50.3838 74.5001 50.4584 74.3557 50.5025 74.1675C50.5465 73.9793 50.5703 73.7318 50.5703 73.425ZM51.4317 73.474C51.4317 73.7344 51.408 73.9561 51.3673 74.1443C51.3266 74.33 51.2486 74.5001 51.1333 74.6522C50.9908 74.8404 50.8077 74.9822 50.5805 75.0853C50.3566 75.1859 50.1023 75.2375 49.8276 75.2375C49.5088 75.2375 49.2239 75.1678 48.9695 75.0338C48.7185 74.8971 48.5286 74.7089 48.3997 74.4666C48.3353 74.3351 48.2878 74.1907 48.2573 74.0309C48.2268 73.871 48.2098 73.6983 48.2098 73.5153C48.2098 73.2755 48.2268 73.0589 48.2607 72.8682C48.2946 72.6748 48.3455 72.5124 48.4167 72.3732C48.5422 72.1463 48.7219 71.971 48.9559 71.8524C49.1934 71.7312 49.4748 71.6719 49.8004 71.6719C50.0175 71.6719 50.2142 71.7003 50.3905 71.7518C50.5669 71.806 50.7195 71.8833 50.8552 71.9839C50.9874 72.087 51.0994 72.2133 51.1909 72.3628C51.3503 72.6258 51.4317 72.9945 51.4317 73.474Z" fill="black"/>
</g>
</svg>
