<svg width="72" height="71" viewBox="0 0 72 71" fill="none" xmlns="http://www.w3.org/2000/svg">
<g id="img-base2" filter="url(#filter0_d_4_1016)">
<g id="Clip path group">
<mask id="mask0_4_1016" style="mask-type:luminance" maskUnits="userSpaceOnUse" x="39" y="40" width="19" height="19">
<g id="aa950093f1">
<path id="Vector" d="M39.1703 49.5731L51.306 40.6551L57.9075 49.6385L45.7718 58.5565L39.1703 49.5731Z" fill="white"/>
</g>
</mask>
<g mask="url(#mask0_4_1016)">
<g id="Group">
<path id="Vector_2" d="M52.4341 53.6607C51.3109 54.4861 49.0781 55.9258 47.4472 56.32C46.462 56.5613 44.803 55.106 41.3198 50.9545C41.0713 50.6545 40.978 50.2907 41.0472 49.8729C41.2234 48.8134 42.4163 47.4794 45.0402 45.4255C47.6471 43.3791 51.0546 41.1918 52.4226 42.3733C53.1674 43.0123 54.6105 45.7021 56.1513 48.6317L56.4047 49.1141C56.6353 49.5579 56.562 50.2452 52.9532 53.2591C52.8304 53.3594 52.6565 53.4973 52.4341 53.6607ZM46.4765 45.3855C46.1811 45.6025 45.8772 45.8309 45.5599 46.0792C44.7136 46.7463 42.1274 48.7675 41.9386 49.9166C41.9109 50.0929 41.9463 50.2327 42.0471 50.3547C45.8557 54.8955 46.989 55.5054 47.3268 55.4684C48.9965 55.0658 51.6016 53.2921 52.4093 52.6182C55.0717 50.3953 55.4877 49.6774 55.5528 49.5139L55.3329 49.0924C54.3348 47.1916 52.4786 43.6492 51.7807 43.0511C51.2742 42.614 49.4557 43.1962 46.4765 45.3855Z" fill="black"/>
</g>
</g>
</g>
<path id="Vector_3" d="M42.9031 52.1386C42.7646 52.2405 42.5793 52.2711 42.4249 52.1985C42.2138 52.1023 42.1356 51.843 42.2652 51.6221C44.8616 47.0548 52.0526 43.4746 52.3561 43.322C52.5903 43.2052 52.8535 43.2883 52.9453 43.4973C53.0359 43.7122 52.9278 43.9777 52.6972 44.0919C52.6219 44.127 45.4855 47.6822 43.0458 51.9735C43.0102 52.0398 42.9615 52.0958 42.9031 52.1386Z" fill="black"/>
<path id="Vector_4" d="M45.7005 52.2848C45.5437 52.4 45.3331 52.4191 45.1752 52.3189C44.9788 52.1968 44.9406 51.9233 45.0944 51.7198C47.8193 48.0534 53.3583 45.1443 53.5938 45.0215C53.8256 44.9014 54.0877 44.9753 54.1892 45.1822C54.287 45.3918 54.1813 45.6606 53.9555 45.7813C53.8972 45.809 48.3959 48.7005 45.8138 52.1714C45.7759 52.2193 45.7406 52.2553 45.7005 52.2848Z" fill="black"/>
<path id="Vector_5" d="M55.1416 47.5941C55.1051 47.6209 55.0663 47.6444 55.019 47.6641C54.9717 47.6838 51.9892 48.86 49.0998 51.7675C48.9195 51.9502 48.6278 51.9736 48.457 51.8176C48.2899 51.6589 48.2953 51.3835 48.4791 51.1981C51.5476 48.1138 54.6355 46.9053 54.7689 46.8576C55.0078 46.7624 55.26 46.8687 55.3299 47.0938C55.3844 47.2749 55.3021 47.4762 55.1416 47.5941Z" fill="black"/>
<path id="Vector_6" d="M49.8637 42.9718C47.9691 41.6393 47.5274 39.2041 47.4942 37.3936C47.4745 36.4881 47.5409 35.5696 47.6046 34.6782C47.6843 33.564 47.7618 32.4162 47.6769 31.3224C47.4789 28.7985 46.3879 26.4733 44.601 24.7753C43.0834 23.3367 41.0883 22.3948 38.9862 22.1248C35.587 21.6869 31.6649 22.9906 28.499 25.6136C27.0091 26.8493 25.0531 28.8949 24.2215 31.6073C23.4159 34.2403 23.8619 37.1551 25.4215 39.4073C26.8827 41.5257 29.2587 43.0624 32.1156 43.7329C32.9528 43.9321 33.8363 44.057 34.6897 44.1789C35.7594 44.3278 36.8618 44.483 37.9124 44.7817C40.2359 45.437 41.8545 46.7913 42.3457 48.4914L41.4702 48.8131C41.0548 47.3689 39.6334 46.2065 37.5719 45.6251C36.5769 45.3409 35.5011 45.1913 34.4676 45.0459C33.5901 44.9216 32.6884 44.795 31.8126 44.589C28.7648 43.8728 26.2177 42.2255 24.651 39.9484C22.9608 37.4955 22.4802 34.3196 23.3575 31.448C24.2595 28.5028 26.3593 26.3013 27.9611 24.9734C31.3398 22.1738 35.5456 20.7823 39.2095 21.2519C41.4857 21.5448 43.6376 22.5625 45.2754 24.1188C47.1958 25.945 48.374 28.4424 48.5877 31.1557C48.6747 32.3134 48.5934 33.4942 48.5135 34.6388C48.4474 35.5118 48.3848 36.4124 48.3998 37.2811C48.4342 38.9097 48.8147 41.0934 50.4478 42.246L49.8637 42.9718Z" fill="black"/>
<path id="Vector_7" d="M46.9258 44.9346C45.3509 43.7544 43.4999 40.9069 43.0216 38.5136C42.547 38.7619 42.0752 38.9376 41.6852 39.003C41.6247 39.0123 41.5641 39.0216 41.5036 39.0309C41.1388 39.6961 40.6002 40.3081 39.9352 40.8018C39.928 40.8071 39.9243 40.8098 39.917 40.8152C41.8879 42.1217 43.5088 44.0675 44.663 46.517L43.8291 46.9489C42.6737 44.4901 41.0297 42.5814 39.0244 41.3505C38.1858 41.7606 37.2833 41.9462 36.4466 41.8623C36.1601 41.8315 35.7541 41.7529 35.5264 41.4124C35.3707 41.17 35.3557 40.8592 35.4968 40.5545C35.6624 40.1914 36.0128 39.8887 36.3897 39.7827C36.9242 39.6312 37.7213 39.6688 38.17 39.8669C38.4946 40.0105 38.813 40.1686 39.1228 40.3381C39.2284 40.2755 39.3269 40.2032 39.4314 40.1314C39.8484 39.82 40.2088 39.4546 40.4872 39.0539C39.6747 38.9723 39.0041 38.6558 38.5985 38.1344C38.2073 37.6326 38.1275 36.8668 38.3968 36.1863C38.6231 35.6078 39.0674 35.1808 39.6153 35.0094C40.3912 34.766 41.2434 35.0698 41.683 35.7521C42.1167 36.4187 42.0741 37.2242 41.9592 37.7862C41.9416 37.8846 41.918 37.9824 41.8907 38.0829C42.1962 37.9941 42.5517 37.8284 42.9039 37.6198C42.8839 37.1418 42.9364 36.7012 43.0744 36.3082C43.3404 35.5697 43.9239 35.1258 44.3807 35.0214C44.7127 34.9383 45.0159 35.0222 45.1863 35.2388C45.4599 35.5807 45.4825 36.0316 45.2592 36.5073C45.0152 37.0235 44.4819 37.5511 43.8645 37.9948C44.2055 40.1018 45.9314 43.0312 47.5256 44.2224L46.9258 44.9346ZM44.3264 35.9562C44.1914 36.0554 44.0306 36.2339 43.9296 36.5091C43.8828 36.6441 43.848 36.7954 43.83 36.9544C44.1062 36.7112 44.3329 36.4541 44.4421 36.213C44.5328 36.0307 44.5141 35.9289 44.4866 35.8686C44.4466 35.8829 44.3883 35.9106 44.3264 35.9562ZM36.453 40.6712C36.3947 40.7141 36.3459 40.77 36.319 40.825C36.3067 40.8541 36.3041 40.8812 36.3089 40.8877C36.3209 40.904 36.3761 40.964 36.6361 40.9891C37.0955 41.0335 37.5883 40.9781 38.0671 40.8273C37.9526 40.7707 37.8367 40.7201 37.7209 40.6695C37.4555 40.5528 36.8774 40.5303 36.5562 40.6205C36.5198 40.6322 36.4858 40.6471 36.453 40.6712ZM39.5815 35.9492C39.3955 36.0858 39.2914 36.288 39.2434 36.4138C39.0848 36.8169 39.1278 37.2729 39.3486 37.558C39.6642 37.9646 40.2351 38.1835 40.9391 38.194C41.0006 38.0332 41.044 37.8706 41.0753 37.7068C41.1939 37.127 41.1319 36.6146 40.9054 36.2682C40.6682 35.8996 40.1952 35.7144 39.8097 35.8317C39.72 35.8625 39.6471 35.9009 39.5815 35.9492Z" fill="black"/>
<g id="Clip path group_2">
<mask id="mask1_4_1016" style="mask-type:luminance" maskUnits="userSpaceOnUse" x="52" y="21" width="9" height="9">
<g id="4d522f1085">
<path id="Vector_8" d="M52.0191 25.9748L58.3678 21.3094L60.8242 24.6521L54.4755 29.3174L52.0191 25.9748Z" fill="white"/>
</g>
</mask>
<g mask="url(#mask1_4_1016)">
<g id="Group_2">
<path id="Vector_9" d="M53.2979 25.4071C53.397 25.0528 53.7622 24.8849 54.0812 24.7611C55.6045 24.1746 57.1338 23.5887 58.6607 22.9995C58.936 22.8927 59.2536 22.79 59.5031 22.9384C59.6128 23.0036 59.6944 23.1146 59.7662 23.2277C60.1663 23.8486 60.4541 25.2107 58.9403 25.8254C58.2902 26.087 52.5902 27.8676 53.2979 25.4071Z" fill="black"/>
</g>
</g>
</g>
<path id="Vector_10" d="M32.59 16.4241C32.2832 16.3428 32.1632 16.0037 32.0816 15.7017C31.7025 14.2611 31.3257 12.8237 30.9429 11.3857C30.8744 11.1244 30.8073 10.8268 30.9698 10.5817C31.0395 10.4702 31.1465 10.3866 31.2546 10.3121C31.8537 9.89702 33.9848 9.61793 33.9992 10.9596C34.0108 11.6097 34.752 16.9819 32.59 16.4241Z" fill="black"/>
<g id="Clip path group_3">
<mask id="mask2_4_1016" style="mask-type:luminance" maskUnits="userSpaceOnUse" x="14" y="17" width="9" height="9">
<g id="e35579623c">
<path id="Vector_11" d="M14.8889 20.4434L18.6229 17.6994L22.6145 23.1312L18.8805 25.8752L14.8889 20.4434Z" fill="white"/>
</g>
</mask>
<g mask="url(#mask2_4_1016)">
<g id="Group_3">
<path id="Vector_12" d="M21.3009 21.397C21.5255 21.6492 21.7513 21.9106 21.8533 22.2328C21.954 22.5609 21.9067 22.9627 21.6376 23.2308C21.3989 23.4715 21.027 23.5538 20.7091 23.5109C20.3875 23.4707 20.1066 23.3253 19.8256 23.1799C18.9791 22.7463 18.1338 22.3067 17.2849 21.8698C16.6615 21.5487 15.9615 21.0929 16.0132 20.3762C16.0409 20.0241 16.2536 19.6869 16.5046 19.4018C16.8397 19.0249 17.2701 18.6935 17.7535 18.5796C19.1845 18.2419 20.5634 20.5615 21.3009 21.397Z" fill="black"/>
</g>
</g>
</g>
<g id="Clip path group_4">
<mask id="mask3_4_1016" style="mask-type:luminance" maskUnits="userSpaceOnUse" x="42" y="8" width="10" height="9">
<g id="852a85c83d">
<path id="Vector_13" d="M42.8078 13.4398L49.1564 8.77447L51.6128 12.1171L45.2641 16.7825L42.8078 13.4398Z" fill="white"/>
</g>
</mask>
<g mask="url(#mask3_4_1016)">
<g id="Group_4">
<path id="Vector_14" d="M47.0728 15.2775C46.805 15.5245 46.5263 15.7795 46.1913 15.9503C45.8527 16.1238 45.4409 16.1901 45.1818 16.0437C44.9467 15.9148 44.8832 15.6297 44.9406 15.3563C44.9979 15.0829 45.1594 14.8135 45.3195 14.55C45.8014 13.7384 46.2856 12.9301 46.7699 12.1218C47.127 11.5226 47.6177 10.8302 48.3494 10.6796C48.7104 10.6053 49.0438 10.6921 49.3224 10.8192C49.6927 10.9945 50.008 11.2554 50.1037 11.6225C50.3859 12.702 47.9551 14.4531 47.0728 15.2775Z" fill="black"/>
</g>
</g>
</g>
<path id="Vector_15" d="M16.8595 32.7845C16.9655 33.4255 15.9543 33.7765 15.3391 34.0627C14.0298 34.6729 12.6846 35.219 11.3133 35.6989C10.975 35.8118 10.551 35.9072 10.2853 35.645C10.1314 35.4967 10.082 35.2766 10.0458 35.0669C9.78237 33.501 10.0242 32.9513 11.5715 32.5885C12.9394 32.272 16.6427 31.496 16.8595 32.7845Z" fill="black"/>
<g id="Clip path group_5">
<mask id="mask4_4_1016" style="mask-type:luminance" maskUnits="userSpaceOnUse" x="10" y="40" width="11" height="9">
<g id="fe0d431139">
<path id="Vector_16" d="M10.7466 46.0087L18.1674 40.5555L20.0096 43.0625L12.5889 48.5157L10.7466 46.0087Z" fill="white"/>
</g>
</mask>
<g mask="url(#mask4_4_1016)">
<g id="Group_5">
<path id="Vector_17" d="M18.5394 42.7353C18.8812 43.2081 16.8562 45.2441 15.5489 46.3002C15.0771 46.6822 13.7737 47.6902 13.1941 47.7039C12.6085 47.717 11.2072 46.6354 11.5429 45.9765C12.1518 44.78 17.2789 41.0124 18.5394 42.7353Z" fill="black"/>
</g>
</g>
</g>
<path id="Vector_18" d="M26.7274 52.2118C26.5872 52.7622 26.4481 53.3219 26.1654 53.8313C25.8851 54.3439 25.3009 55.0849 24.5346 54.9593C23.9171 54.8601 23.438 54.2923 23.5661 53.7406C23.9892 51.9015 24.8861 50.3174 25.882 49.3342C27.9516 47.3056 26.9471 51.3415 26.7274 52.2118Z" fill="black"/>
</g>
<defs>
<filter id="filter0_d_4_1016" x="5.95381" y="9.9696" width="58.132" height="54.3758" filterUnits="userSpaceOnUse" color-interpolation-filters="sRGB">
<feFlood flood-opacity="0" result="BackgroundImageFix"/>
<feColorMatrix in="SourceAlpha" type="matrix" values="0 0 0 0 0 0 0 0 0 0 0 0 0 0 0 0 0 0 127 0" result="hardAlpha"/>
<feOffset dy="4"/>
<feGaussianBlur stdDeviation="2"/>
<feComposite in2="hardAlpha" operator="out"/>
<feColorMatrix type="matrix" values="0 0 0 0 0 0 0 0 0 0 0 0 0 0 0 0 0 0 0.25 0"/>
<feBlend mode="normal" in2="BackgroundImageFix" result="effect1_dropShadow_4_1016"/>
<feBlend mode="normal" in="SourceGraphic" in2="effect1_dropShadow_4_1016" result="shape"/>
</filter>
</defs>
</svg>
