<svg width="63" height="65" viewBox="0 0 63 65" fill="none" xmlns="http://www.w3.org/2000/svg">
<g id="img-celsius" filter="url(#filter0_d_3_19)">
<mask id="mask0_3_19" style="mask-type:luminance" maskUnits="userSpaceOnUse" x="4" y="0" width="55" height="57">
<g id="00674852f5">
<path id="Vector" d="M4 0H59V57H4V0Z" fill="white"/>
</g>
</mask>
<g mask="url(#mask0_3_19)">
<g id="Group">
<path id="Vector_2" d="M58.6739 51.9559C58.936 52.3693 58.805 52.9021 58.3479 53.1989C53.7737 55.6294 48.4833 56.9307 43.1259 56.9307C26.5997 56.9307 13.1453 44.7283 13.1453 29.743C13.1453 14.7578 26.5997 2.55538 43.1259 2.55538C48.4833 2.55538 53.7097 3.85941 58.3479 6.28713C58.805 6.52574 59 7.05844 58.6739 7.53289C58.4118 7.9463 57.8237 8.12387 57.3026 7.82699C52.9905 5.51858 48.0902 4.33385 43.1259 4.33385C27.645 4.33385 15.1048 15.7067 15.1048 29.743C15.1048 43.7822 27.712 55.155 43.1259 55.155C48.1572 55.155 53.0545 53.9702 57.3026 51.6591C57.8237 51.4232 58.4118 51.5398 58.6739 51.9559ZM10.7287 12.2718C7.00477 12.2718 4 9.5472 4 6.17059C4 2.79399 7.00477 0.069397 10.7287 0.069397C14.4527 0.069397 17.4574 2.79399 17.4574 6.17059C17.4574 9.5472 14.3856 12.2718 10.7287 12.2718ZM15.4949 6.17059C15.4949 3.80114 13.3404 1.8451 10.7287 1.8451C8.11403 1.8451 5.9595 3.80114 5.9595 6.17059C5.9595 8.54005 8.11403 10.4933 10.7287 10.4933C13.3404 10.4933 15.4949 8.54005 15.4949 6.17059Z" fill="black"/>
</g>
</g>
</g>
<defs>
<filter id="filter0_d_3_19" x="0" y="0.069397" width="62.836" height="64.8613" filterUnits="userSpaceOnUse" color-interpolation-filters="sRGB">
<feFlood flood-opacity="0" result="BackgroundImageFix"/>
<feColorMatrix in="SourceAlpha" type="matrix" values="0 0 0 0 0 0 0 0 0 0 0 0 0 0 0 0 0 0 127 0" result="hardAlpha"/>
<feOffset dy="4"/>
<feGaussianBlur stdDeviation="2"/>
<feComposite in2="hardAlpha" operator="out"/>
<feColorMatrix type="matrix" values="0 0 0 0 0 0 0 0 0 0 0 0 0 0 0 0 0 0 0.25 0"/>
<feBlend mode="normal" in2="BackgroundImageFix" result="effect1_dropShadow_3_19"/>
<feBlend mode="normal" in="SourceGraphic" in2="effect1_dropShadow_3_19" result="shape"/>
</filter>
</defs>
</svg>
