<svg width="34" height="37" viewBox="0 0 34 37" fill="none" xmlns="http://www.w3.org/2000/svg">
<g id="img-butao" filter="url(#filter0_d_3_37)">
<g id="Clip path group">
<mask id="mask0_3_37" style="mask-type:luminance" maskUnits="userSpaceOnUse" x="7" y="0" width="20" height="29">
<g id="d7dcdf2959">
<path id="Vector" d="M7.84478 0H26.1977V29H7.84478V0Z" fill="white"/>
</g>
</mask>
<g mask="url(#mask0_3_37)">
<g id="Group">
<path id="Vector_2" d="M24.8896 21.2057C24.8896 24.9164 21.3625 27.9364 17.0283 27.9364C12.6932 27.9364 9.1662 24.9164 9.1662 21.2057C9.1662 18.8809 10.5372 16.7544 12.834 15.5175C12.9986 15.429 13.0968 15.2747 13.0968 15.1097V4.37867C13.0968 2.52296 14.8608 1.01372 17.0283 1.01372C18.0745 1.01372 19.064 1.36247 19.8075 1.99567C20.5509 2.63568 20.959 3.48297 20.959 4.37867V15.1097C20.959 15.2747 21.0581 15.429 21.2218 15.5175C23.5186 16.7544 24.8896 18.8809 24.8896 21.2057ZM20.6014 1.31557C19.6428 0.50081 18.3728 0.0522003 17.0283 0.0522003C14.2403 0.0522003 11.9737 1.99189 11.9737 4.37867V14.8503C9.50606 16.2816 8.04303 18.6381 8.04303 21.2057C8.04303 25.4482 12.0728 28.8979 17.0283 28.8979C21.983 28.8979 26.0127 25.4482 26.0127 21.2057C26.0127 18.6381 24.5497 16.2816 22.0821 14.8503V4.37867C22.0821 3.22727 21.5581 2.14016 20.6014 1.31557Z" fill="#040606"/>
</g>
</g>
</g>
<path id="Vector_3" d="M22.6432 21.2057C22.6432 23.8573 20.1252 26.0133 17.0283 26.0133C13.9306 26.0133 11.4125 23.8573 11.4125 21.2057C11.4125 19.0625 13.0906 17.1606 15.4945 16.5819C15.7379 16.5237 15.9052 16.3338 15.9052 16.1182V13.0324H18.1515V16.1182C18.1515 16.3338 18.3179 16.5237 18.5613 16.5819C20.9651 17.1606 22.6432 19.0625 22.6432 21.2057ZM17.0283 3.41715C17.3266 3.41715 17.6089 3.51701 17.8222 3.69857C18.0347 3.88089 18.1515 4.12373 18.1515 4.37867V12.0709H15.9052V4.37867C15.9052 3.84912 16.4097 3.41715 17.0283 3.41715ZM19.2746 4.37867C19.2746 3.86576 19.0419 3.38311 18.6161 3.01923C18.1904 2.65459 17.6266 2.45563 17.0283 2.45563C15.7883 2.45563 14.782 3.31805 14.782 4.37867V15.7672C12.117 16.5706 10.2894 18.7569 10.2894 21.2057C10.2894 24.3868 13.3119 26.9748 17.0283 26.9748C20.7439 26.9748 23.7664 24.3868 23.7664 21.2057C23.7664 18.7569 21.9396 16.5706 19.2746 15.7672V4.37867Z" fill="#040606"/>
<g id="Clip path group_2">
<mask id="mask1_3_37" style="mask-type:luminance" maskUnits="userSpaceOnUse" x="4" y="1" width="8" height="14">
<g id="e63230d4e0">
<path id="Vector_4" d="M4 1.35567H11.0169V14.1376H4V1.35567Z" fill="white"/>
</g>
</mask>
<g mask="url(#mask1_3_37)">
<g id="Group_2">
<path id="Vector_5" d="M9.67511 4.37867H8.60505C8.45548 4.37867 8.31298 4.42936 8.20765 4.51938C8.10233 4.60941 8.04303 4.73196 8.04303 4.85981V13.0324H6.92252L6.91987 4.85981C6.91987 4.59277 6.67028 4.37867 6.35873 4.37867H5.28779C5.27451 4.37867 5.25061 4.37867 5.24884 4.32042L7.44206 2.46698C7.45091 2.45941 7.46596 2.45563 7.48366 2.45563C7.49694 2.45563 7.51198 2.45941 7.51906 2.46546L9.72379 4.3522C9.71228 4.37867 9.68839 4.37867 9.67511 4.37867ZM8.30678 1.77931C7.85008 1.39803 7.11104 1.39803 6.65435 1.78158L4.4629 3.63503C4.12568 3.91493 4.02036 4.33934 4.19826 4.71456C4.37793 5.09433 4.80542 5.3402 5.28779 5.3402H5.79671L5.79936 13.0324C5.79936 13.5619 6.3012 13.9939 6.92252 13.9939H8.04303C8.6617 13.9939 9.16619 13.5619 9.16619 13.0324V5.3402H9.67511C10.1575 5.3402 10.5859 5.09433 10.7655 4.71456C10.9434 4.33934 10.8381 3.91493 10.5044 3.6373L8.30678 1.77931Z" fill="#040606"/>
</g>
</g>
</g>
<g id="Clip path group_3">
<mask id="mask2_3_37" style="mask-type:luminance" maskUnits="userSpaceOnUse" x="23" y="1" width="7" height="14">
<g id="b981110774">
<path id="Vector_6" d="M23.0256 1.35567H30V14.1376H23.0256V1.35567Z" fill="white"/>
</g>
</mask>
<g mask="url(#mask2_3_37)">
<g id="Group_3">
<path id="Vector_7" d="M28.768 11.1093C28.7812 11.1093 28.8051 11.1093 28.8051 11.1676L26.6137 13.021C26.5969 13.0384 26.5526 13.0362 26.5376 13.0233L24.3329 11.1358C24.3435 11.1093 24.3674 11.1093 24.3807 11.1093H25.4516C25.7631 11.1093 26.0127 10.8952 26.0127 10.6289L26.0154 2.45563H27.1359V10.6289C27.1359 10.7568 27.1952 10.8786 27.3005 10.9686C27.4058 11.0586 27.5483 11.1093 27.6979 11.1093H28.768ZM27.1359 1.49411H26.0154C25.3941 1.49411 24.8922 1.92607 24.8922 2.45563L24.8896 10.1478H24.3807C23.8983 10.1478 23.4708 10.3937 23.2911 10.7734C23.1132 11.1487 23.2185 11.5731 23.5513 11.8515L25.7499 13.7087C25.9782 13.8986 26.2765 13.9939 26.5721 13.9939C26.873 13.9939 27.1731 13.8986 27.4014 13.7064L29.5929 11.853C29.931 11.5731 30.0363 11.1487 29.8584 10.7734C29.6787 10.3937 29.2503 10.1478 28.768 10.1478H28.2591V2.45563C28.2591 1.92607 27.7546 1.49411 27.1359 1.49411Z" fill="#040606"/>
</g>
</g>
</g>
</g>
<defs>
<filter id="filter0_d_3_37" x="0.112789" y="0.0522003" width="33.831" height="36.8457" filterUnits="userSpaceOnUse" color-interpolation-filters="sRGB">
<feFlood flood-opacity="0" result="BackgroundImageFix"/>
<feColorMatrix in="SourceAlpha" type="matrix" values="0 0 0 0 0 0 0 0 0 0 0 0 0 0 0 0 0 0 127 0" result="hardAlpha"/>
<feOffset dy="4"/>
<feGaussianBlur stdDeviation="2"/>
<feComposite in2="hardAlpha" operator="out"/>
<feColorMatrix type="matrix" values="0 0 0 0 0 0 0 0 0 0 0 0 0 0 0 0 0 0 0.25 0"/>
<feBlend mode="normal" in2="BackgroundImageFix" result="effect1_dropShadow_3_37"/>
<feBlend mode="normal" in="SourceGraphic" in2="effect1_dropShadow_3_37" result="shape"/>
</filter>
</defs>
</svg>
